<svg version="1" xmlns="http://www.w3.org/2000/svg" width="682.667" height="682.667" viewBox="0 0 512.000000 512.000000"><path d="M122.9 7.9c1.6 1.1.1 1.6-7.1 2.6-2.7.3-4.8.9-4.8 1.3s-1.8.7-4 .7-4 .3-4 .7c0 .5.7.8 1.6.8 1.3 0 1.4.3.5 1.4-1 1.1-.6 1.6 2.1 2.5 3.3 1.1 13 7.1 11.5 7.1-.4 0-1.9-.7-3.2-1.6-1.3-.9-3-1.7-3.7-1.8-.7-.2-3.3-1.3-5.8-2.4-2.5-1.2-5.2-2.2-6-2.2-.8 0 1.3 1.3 4.6 2.9 3.4 1.6 6.5 3.4 6.9 4 .3.6 3 2.3 5.8 3.8 13.8 6.9 41.5 25.1 48.6 31.7 10.9 10.3 27.6 34 43.6 62.1 25.4 44.3 38 60.6 54.7 70.7 24.3 14.8 61.2 18.1 97.8 8.8 10.6-2.7 31.9-6 38.7-6 7.7 0 16.1 2.1 21.7 5.4 7.5 4.4 14.3 16.2 15.6 27.1 1 8.4-.4 21.4-2.8 26.1-2 3.9-12 12.7-17.7 15.7-4.1 2.1-19.6 18.2-22.8 23.7-6.3 10.9-7.9 17.3-8.4 34l-.5 15.5 5.7 22c5.5 21.2 8.2 32.3 9.2 37.5 1.3 7.2 2.6 12.6 3.3 13.5.4.5 1.2 3.7 1.9 7s2.1 8.5 3.2 11.6c1 3.1 2.1 9.2 2.5 13.5.6 7.2.4 8.8-2.5 17.3-4.7 14.1-12.2 23.3-25.6 31.9-1.8 1.2-1.6 1.3 1.9.8 2.1-.3 3.7-.4 3.5-.2-.2.2-2.2 1.6-4.4 3.1-3.8 2.7-3.9 2.7-1 2.1 1.7-.4 4.8-1.9 7-3.2l4-2.5-3.9 3.5c-4.4 4.1-4.1 4.4 1.7 1.6l4.2-2.1-3.7 3.2c-8.8 7.3-1.3 5.8 8.9-1.7 9.4-7.1 19.9-19.7 25.4-30.6 1.2-2.3 2.7-5 3.4-5.8 1.8-2 5.5-12 5.5-14.5 0-1.2.4-2.5.8-3 1.4-1.6 4-9.6 4.7-14.5.4-2.5.9-5.3 1.1-6.3.2-1 .6-5.6 1-10.3.9-10.7-1.1-23.8-7.7-50.4-5.7-23.6-7.2-39.4-4.5-47.6 1.9-5.7 6.6-10.7 14.1-15 23.6-13.3 32.6-23.5 39.6-44.9 7-21.5 4.5-47.9-6.6-68-15-27.3-31.5-41-55.9-46.2-5.5-1.2-10.6-1.4-22.2-.9-14.4.6-34.7 4-65.9 11.1-8.9 2-29 2.1-36.2.1-14.9-4.1-19.6-9.1-50.1-54.6-8-11.8-16.9-24.5-19.8-28.2-5-6.2-23.7-25-31.4-31.5-7.5-6.4-20-14.4-29-18.6-5.2-2.4-11.5-5.4-14-6.5-5.3-2.5-11.2-4.5-19.6-6.6-6.8-1.8-13.8-2.2-11.5-.7zm126 99.5c1.3 2.2 1.9 3.6 1.4 3.1-1.6-1.6-15.3-22.3-15.3-23.2 0-1 10.6 14.3 13.9 20.1zm-33.4-4.2l1.6 3.3-2.1-2.4c-1.1-1.3-2-2.7-2-3.2 0-1.8 1-.8 2.5 2.3zm7 11.5c8.6 16.6 21.1 36.8 29.4 47.7 2.4 3.2 4 5.7 3.4 5.5-1.2-.5-8.8-9.2-10.7-12.3-.8-1.2-3.4-5.3-6-9.3-2.5-4-4.6-7.4-4.6-7.7 0-.3-1.5-3.1-3.3-6.3-6.1-10.4-12.6-23.3-11.9-23.3.4 0 2 2.6 3.7 5.7zm-7.4.5c.8 1.5.8 1.8 0 1.4-.6-.4-1.6-1.6-2.2-2.8-.8-1.5-.8-1.8 0-1.4.6.4 1.6 1.6 2.2 2.8zM257 120c.6 1.1.8 2 .6 2-.3 0-1-.9-1.6-2-.6-1.1-.8-2-.6-2 .3 0 1 .9 1.6 2zm-33.5 5c.9 1.6 1.3 3 1.1 3-.3 0-1.2-1.4-2.1-3-.9-1.7-1.3-3-1.1-3 .3 0 1.2 1.3 2.1 3zm5 16.7c3.7 6.5 7 12.1 7.2 12.5.2.5.2.8 0 .8-.5 0-10.4-16.5-13.1-21.8-.9-1.7-1.5-3.2-1.2-3.2.2 0 3.5 5.3 7.1 11.7zm18 22.4c3.7 5.7 5.9 9.7 4.9 8.9-1.5-1.3-14.4-20.3-14.4-21.3 0-.2-2.5-4.8-5.5-10.3-3-5.4-5.5-10.4-5.5-10.9 0-.6 3.1 4.4 6.8 11.1 3.8 6.7 9.9 16.8 13.7 22.5zm209.9 7c7.6 8.1 13.7 17.2 16.2 24.1 2.1 6.2.7 4.4-4-5-2.5-4.8-6.7-11-9.3-13.8-15.7-16.5-16.7-17.7-13.7-15.6 1.8 1.2 6.6 5.8 10.8 10.3zm3.2 10.6c6.8 9 12.1 19.2 13.9 26.8 1.2 5.1-.7 1.9-3.9-6.7-3-7.8-7.3-14.7-17.5-27.6-2.7-3.3-3.5-4.9-2.1-3.9 1.2.9 5.6 6 9.6 11.4zm16.3 23.3c0 1-.3.8-.9-.5-1.2-2.7-1.2-4.3 0-2.5.5.8.9 2.2.9 3zm-71.3 85.7c-5.4 5.1-9.6 14.8-11.7 26.8-1.5 8.7-1.7 9.3-1.8 5-.2-10.2 6-26.9 12.1-32.4 4.8-4.4 6.1-3.8 1.4.6zm0 8.6c-4.2 5.5-6.6 12.4-7.2 21.3-.4 4.6-1 8.4-1.3 8.4-1 0 .6-16.1 1.9-20 1.4-4 7.1-12.9 8.3-13 .4 0-.3 1.5-1.7 3.3zm-7.7 34.7c0 1-.3.8-.9-.5-1.2-2.7-1.2-4.3 0-2.5.5.8.9 2.2.9 3zm-5 3.3c-.1 3.1-.1 3.1-.9.7-1.1-3.6-1.1-5.2 0-4.5.6.3 1 2.1.9 3.8zm35.8 21.9c-.3.8-.6.5-.6-.6-.1-1.1.2-1.7.5-1.3.3.3.4 1.2.1 1.9zm1 4c-.3.8-.6.5-.6-.6-.1-1.1.2-1.7.5-1.3.3.3.4 1.2.1 1.9zm3 3c-.3.7-.5.2-.5-1.2s.2-1.9.5-1.3c.2.7.2 1.9 0 2.5zm-.9 5.3c0 1.6-.2 1.5-.8-.5-.4-1.4-.8-3.4-.8-4.5 0-1.6.2-1.5.8.5.4 1.4.8 3.4.8 4.5zm6.1 16.5c-.1.8-.9-1.4-1.9-5-1.2-4.2-1.9-5.6-2-4l-.2 2.5-.8-2.5c-.4-1.4-.8-3.2-.9-4-.1-1.3 0-1.3 1 0 .7 1.1.9.3.5-3-.3-2.5.5-.3 1.9 5 1.3 5.2 2.4 10.2 2.4 11zm-38.2-12.8c-.3.8-.6.5-.6-.6-.1-1.1.2-1.7.5-1.3.3.3.4 1.2.1 1.9zm2 8c-.3.8-.6.5-.6-.6-.1-1.1.2-1.7.5-1.3.3.3.4 1.2.1 1.9zm3.7 14.8c1.4 6.3 3.6 15.5 5 20.5 2.4 8.4 3.2 12.4 2.2 11.4-1.5-1.5-10.7-39.9-10.5-43.8.1-2.5.7-.4 3.3 11.9z"/><path d="M52 28c-5 2.6-15.5 12.4-19.3 17.9-7.8 11.3-9.7 17.4-9.7 31 0 10.9 1.6 19 5.4 27.6 1.2 2.7 2.6 6 3.2 7.2 1.5 3.6 14.5 18.2 20.3 23 9.8 8 20.8 12.4 34.1 13.8 3.6.4 8.1 1.6 10.1 2.7 12.6 7 24.5 33.2 37.2 81.3 5.2 19.3 8.2 33.3 9.2 42 1.1 10 7.3 35.2 11.7 48 2.9 8.2 9.4 17.8 17 25.1 7.8 7.4 13.4 10.8 21.8 13 7.8 2.1 27.1 3 32 1.5 4.1-1.3 19.3-5.1 23.2-5.8 5.7-1.1 13.7 3.8 16.3 10 .7 1.8 1.6 7.3 2 12.2l.7 9-7.5 15c-11.4 22.6-14.1 37.2-10.3 55.6 2.2 10.2 4.8 14.6 16.1 26.5 9.2 9.8 11.5 11.7 19.5 15.9 7.9 4 12.8 5.9 21.5 8 1.1.3 3.8.7 6 1 3.4.5 3.1.2-2.5-1.8-6.9-2.5-13-5.4-13-6.2 0-.3 2.1.4 4.8 1.4 2.6 1 6.7 1.9 9.1 2 2.4 0 6.1.6 8.2 1.3 2.2.6 4.2.9 4.5.5.9-.9-.5-2.7-2.2-2.7-.8 0-3.4-.9-5.7-1.9-2.4-1.1-5.5-2.3-7-2.6-1.5-.4-2.9-1-3.1-1.4-.3-.4 3.5.3 8.2 1.6 4.8 1.2 9.8 2.2 11.2 2.1 1.4 0 .1-.5-2.8-1.2-2.9-.6-5.6-1.6-6-2.1-.4-.6-3.3-1.8-6.4-2.8-3.2-1-6-2.2-6.3-2.7-.3-.5 2.6.2 6.5 1.5 8 2.7 17.4 4 16.4 2.3-.5-.8 1.4-.9 6.2-.5 5.2.5 6.3.4 4.4-.4-1.4-.6-5.2-1.2-8.5-1.5-3.3-.2-7.6-.9-9.5-1.5-3.9-1.3-6.2-2.9-4-2.9 2.3 0-.1-1.5-5.2-3.4-2.6-1-5.1-2.2-5.5-2.8-.4-.8 0-.9 1.3-.4 1 .4 5.1 1.3 8.9 2.1 3.9.7 8.3 1.9 10 2.5 4.1 1.6 15.7 2.9 17.3 2 .8-.4-2.3-1-6.8-1.3-4.7-.4-9.3-1.3-10.6-2.2-1.3-.8-2.9-1.5-3.6-1.6-.7 0-3.1-.9-5.3-2-2.2-1.1-3.1-1.7-2.1-1.4 1.6.5 1.7.3.6-1-.7-.8-.9-1.5-.4-1.5.5-.1-.7-.9-2.6-2-4.3-2.3-3.6-2.5 2-.5 5.7 2 6.2 1.8 2-.6-1.9-1.1-2.6-1.8-1.5-1.5 11 2.6 22.9 4.7 25.2 4.3 2.8-.4 2.8-.4-.4-.6-3.7-.1-5.6-2.1-2.1-2.1 1.3-.1-1.5-1.3-6.2-2.9-12.3-4-13.2-4.6-25.6-16.6-7.8-7.6-9.4-11-9.4-20 0-5.9 1.6-10.8 7-21.6 8.7-17.2 12.7-35 11.4-50.2-.8-9.7-2.9-15.8-8.6-25.3-4.8-7.8-9.9-12.8-20.3-19.9-5.6-3.8-7.1-4.4-7.3-3.1-.3 1.2-.8 1.4-2.2.6-2.3-1.2-16.4-4-20.2-4-1.9 0-2.8-.5-2.8-1.6 0-2.4-5.7-1.3-18.5 3.6-11.9 4.5-17.6 5-23.3 2.1-4.6-2.3-7.3-5.3-10.1-10.9-3-5.8-8.6-25.9-10.1-36.2-1-6-1.9-9.1-3.4-10.5-1.9-1.8-1.9-2-.2-2.3 1.1-.2 1.5-.9 1.2-1.9-.3-.8-.6-2.4-.6-3.6 0-1.7-.2-1.9-.9-.7-.6.8-.7 1.8-.5 2.2.3.4.1.8-.4.8-1.5 0-2.1-5.1-.7-5.6 1-.4.9-2.1-.7-7.7-4-14.3-11.1-35.4-15-44.2-2.2-5-5.9-14-8.2-20-5.8-14.9-9.8-22.7-16.1-31.1-11-14.7-23.2-25.8-32.7-29.7-3.8-1.6-13.1-3.1-25.7-4.2-9.5-.8-11.7-1.7-17-6.8-5.3-5.2-8.3-9.7-10.4-16.1-3.5-10.3-1.8-16.5 7.2-26 3.9-4.1 4.7-5.4 2.7-4.2-2.7 1.7-3 1.7-3.8.2-.7-1.3-1.3-1.4-2.3-.6-2.1 1.8-2.7-.5-.6-2.5 1.1-.9 1.8-2.5 1.6-3.5-.2-1.2.1-1.7.9-1.4.7.3 1.8-.2 2.5-1 1.1-1.4.8-1.5-3-1.1-5.1.5-8.2 2.6-13 8.9-4.5 5.9-7.9 15.5-8 22.6 0 3.6-.3 4.8-.8 3.5-1.8-4.6.7-16 5.1-23.5 2.8-4.6 7.4-9.6 12.2-13.1 4.9-3.6 3.7-3.8-2.1-.3-2.5 1.4-4.7 2.3-5 2-.7-.7-1.2-.3 6.5-5.9l6.3-4.6-3.8.6c-2.1.3-4.6 1-5.5 1.4-2.9 1.5-3.4.9-.8-1.1 1.4-1.1 1.9-2 1.2-2-2 0-8.6 4.6-11.6 8-1.5 1.8-2.9 3.1-3.1 2.8-.3-.2 2.1-3 5.1-6.2 4-4.1 5-5.6 3.4-5.1-1.7.5-2.1.4-1.5-.6.4-.8-1.3.6-3.9 3.1-5.7 5.4-13.1 15.7-15.3 21.3-.9 2.3-1.9 3.5-2.1 2.9-.7-2.3 7.8-17.7 12.8-23.4 2.8-3.1 7.8-7.5 11.1-9.7 6.4-4.3 6.8-5.3.9-2.1zM39.4 52c-1 1.6-2 2.8-2.2 2.6-.4-.5 2.8-5.6 3.5-5.6.2 0-.4 1.3-1.3 3zM62 49.9c0 .5-.7 1.2-1.6 1.5-1.4.5-1.5.4-.4-.9 1.4-1.7 2-1.9 2-.6zm-12 2.2c-.7 1.1-1.4 1.8-1.7 1.5-.3-.3 0-1.2.7-2.1 1.8-2.1 2.3-1.9 1 .6zm-7.3 36.1c-.3.8-.6.5-.6-.6-.1-1.1.2-1.7.5-1.3.3.3.4 1.2.1 1.9zm8 1c-.3.8-.6.5-.6-.6-.1-1.1.2-1.7.5-1.3.3.3.4 1.2.1 1.9zM64.5 108c.3.5.1 1-.4 1-.6 0-1.1-.5-1.1-1 0-.6.2-1 .4-1 .3 0 .8.4 1.1 1zm34.2 27.6c-.3.3-1.2.4-1.9.1-.8-.3-.5-.6.6-.6 1.1-.1 1.7.2 1.3.5zm34.8 32c3.6 6.1 6.5 11.5 6.5 12 0 1-14-22.3-14.7-24.6-.8-2.5 1.1.4 8.2 12.6zm-12.1-11c.3.8.2 1.2-.4.9-.6-.3-1-1-1-1.6 0-1.4.7-1.1 1.4.7zm3.4 8.6c4.9 7.8 9.9 17.8 7.9 15.8-.8-.8-2.8-4-4.4-7-1.6-3-4.1-7.4-5.6-9.7-1.5-2.4-2.7-4.5-2.7-4.8 0-1.4 1.1 0 4.8 5.7zm7.2 7.9c0 .6-.4.7-1 .4-.5-.3-1-1.1-1-1.6 0-.6.5-.7 1-.4.6.3 1 1.1 1 1.6zm5 12.4c.5-.3 1.1-.1 1.5.5.3.5.1 1-.5 1-.5 0 .1 2.2 1.5 5 4.1 8.1 8.4 20.7 12 35.6 3.4 13.5 4.7 24.3 2.4 18.5-.5-1.3-1-3.6-1.1-5-.2-3.9-7.4-31.9-9.7-37.9-1.1-2.8-3.6-8.3-5.6-12.2-3.2-6.4-4.8-10.9-2.4-6.7.6.9 1.4 1.5 1.9 1.2zm10.3 5.5c.3 1.1.1 1.8-.4 1.4-.5-.3-.9-1.2-.9-2 0-2 .7-1.7 1.3.6zm8.1 20.4c.9 2.7 1.4 5.1 1.2 5.3-.2.3-.9-1.3-1.6-3.4-.7-2.1-1.6-4.2-2.1-4.8-.5-.5-.9-1.6-.9-2.4 0-2.5 1.6.1 3.4 5.3zm2.3 8.8c-.3.8-.6.5-.6-.6-.1-1.1.2-1.7.5-1.3.3.3.4 1.2.1 1.9zM183 242c0 .5-.4 1-1 1-.5 0-1-.5-1-1 0-.6.5-1 1-1 .6 0 1 .4 1 1zm-3.9 46c1.1 4.6 1.8 8.5 1.6 8.7-.4.4-4.7-14.8-4.7-16.7 0-2.9 1.2.2 3.1 8zm12.9-.4c0 .8-.4 1.2-1 .9-.5-.3-1-1-1-1.6 0-.5.5-.9 1-.9.6 0 1 .7 1 1.6zm-8.6 15c1 3.8 0 4.1-1.2.5-.6-1.7-.7-3.1-.3-3.1.5 0 1.2 1.2 1.5 2.6zm58.7 12.9c-1.8.8-4.3 1.5-5.5 1.5-2 0-2-.1.4-1.4 1.4-.8 3.9-1.4 5.5-1.5h3l-3.4 1.4zm8.2 10.2c-.7.2-2.1.2-3 0-1-.3-.4-.5 1.2-.5 1.7 0 2.4.2 1.8.5zM307 345c0 .5-.2 1-.4 1-.3 0-.8-.5-1.1-1-.3-.6-.1-1 .4-1 .6 0 1.1.4 1.1 1zm-42.1 99.8c1.1 5.2.6 5.4-1.4.6-1.7-4.1-2.1-9.1-.5-6.3.5.9 1.3 3.4 1.9 5.7zm-2.9 1.9c0 2.5 3.8 12.9 5.7 15.8 1.5 2.3 1.7 5.5.3 5.5-1 0-2.9-3.8-2.6-5.1 0-.3-.4-1.2-1.1-2-.6-.8-1.4-3.2-1.8-5.4-.4-2.2-1.1-4.5-1.5-5-.5-.6-.8-2.7-.7-4.7.1-3.9 1.7-3.1 1.7.9z"/><path d="M58.5 36c-.3.6.1.7.9.4 1.8-.7 2.1-1.4.7-1.4-.6 0-1.3.4-1.6 1zM254.8 310.7c.7.3 1.6.2 1.9-.1.4-.3-.2-.6-1.3-.5-1.1 0-1.4.3-.6.6zM262 311.5c2.5.8 5.5 1.7 6.8 2 1.3.5 2.2.3 2.2-.3s-2.3-1.5-5-2.1c-7-1.5-9.5-1.2-4 .4zM273.2 314.4c.7.8 1.7 1.2 2.2.9.4-.3.2-.9-.5-1.4-2.2-1.3-3.1-1.1-1.7.5zM329.8 502.7c1.2.2 3 .2 4 0 .9-.3-.1-.5-2.3-.4-2.2 0-3 .2-1.7.4zM340.8 503.7c1.2.2 3 .2 4 0 .9-.3-.1-.5-2.3-.4-2.2 0-3 .2-1.7.4z"/></svg>