<?xml version="1.0" encoding="UTF-8"?>
<svg width="64px" height="70px" viewBox="0 0 64 70" version="1.1" xmlns="http://www.w3.org/2000/svg" xmlns:xlink="http://www.w3.org/1999/xlink">
    <!-- Generator: Sketch 48.2 (47327) - http://www.bohemiancoding.com/sketch -->
    <title>logotypes/watermark</title>
    <desc>Created with Sketch.</desc>
    <defs>
        <polygon id="path-1" points="31.9916663 70 0.06 70 0.06 0.884 31.9916663 0.884 63.9233326 0.884 63.9233326 70"></polygon>
    </defs>
    <g id="Page-1" stroke="none" stroke-width="1" fill="none" fill-rule="evenodd">
        <g id="logotypes/watermark">
            <g id="Group-4">
                <mask id="mask-2" fill="white">
                    <use xlink:href="#path-1"></use>
                </mask>
                <g id="Clip-2"></g>
                <path d="M61.979,28.099 C61.968,27.892 61.814,27.752 61.797,27.499 C61.892,27.474 61.937,27.564 61.988,27.64 C61.968,27.657 61.992,27.692 61.942,27.692 C61.966,27.751 62.031,27.711 62.055,27.765 C62.006,27.76 62.04,27.843 62.064,27.829 C62.064,27.879 62.007,27.84 61.988,27.843 C62.088,27.924 62.124,28.006 62.193,28.18 C62.099,28.21 62.039,28.149 61.979,28.099 Z M26.326,15.888 C26.27,15.688 26.09,15.585 26.019,15.342 C26.106,15.297 26.169,15.375 26.236,15.438 C26.22,15.459 26.251,15.489 26.202,15.499 C26.238,15.551 26.293,15.499 26.328,15.546 C26.279,15.551 26.33,15.625 26.35,15.606 C26.362,15.656 26.298,15.629 26.28,15.636 C26.394,15.695 26.448,15.767 26.553,15.921 C26.467,15.972 26.394,15.925 26.326,15.888 Z M32.153,16.652 C32.097,16.453 31.917,16.349 31.846,16.106 C31.934,16.061 31.997,16.14 32.063,16.203 C32.047,16.224 32.078,16.253 32.029,16.263 C32.065,16.315 32.12,16.263 32.155,16.31 C32.106,16.315 32.157,16.39 32.178,16.371 C32.189,16.419 32.126,16.394 32.107,16.4 C32.222,16.458 32.275,16.531 32.38,16.686 C32.294,16.736 32.222,16.688 32.153,16.652 Z M57.02,54.53 C57.019,54.58 57.005,54.613 56.994,54.556 C57.023,54.519 56.994,54.439 57.005,54.393 C56.988,54.336 56.954,54.306 56.957,54.183 C56.95,54.132 56.946,54.196 56.937,54.158 C56.928,54.115 56.915,54.061 56.913,54.023 C56.861,53.951 56.833,53.664 56.79,53.561 C56.773,53.432 56.737,53.361 56.715,53.322 C56.664,53.023 56.571,52.633 56.497,52.412 C56.499,52.387 56.502,52.365 56.506,52.35 C56.485,52.365 56.467,52.267 56.436,52.19 C56.437,52.102 56.414,51.955 56.387,51.936 C56.373,51.789 56.333,51.634 56.298,51.626 C56.289,51.59 56.29,51.561 56.293,51.533 C56.28,51.509 56.273,51.482 56.269,51.537 C56.262,51.473 56.256,51.478 56.242,51.4 C56.248,51.377 56.255,51.399 56.26,51.357 C56.235,51.236 56.21,51.132 56.205,51.005 C56.171,50.885 56.141,50.984 56.111,50.864 C56.115,50.842 56.122,50.818 56.129,50.798 C56.117,50.77 56.108,50.803 56.099,50.8 C56.096,50.773 56.097,50.752 56.094,50.725 C56.081,50.689 56.071,50.747 56.061,50.747 C56.053,50.705 56.054,50.674 56.042,50.629 C56.04,50.582 56.052,50.543 56.044,50.494 C56.027,50.516 56.028,50.461 56.021,50.406 C56.001,50.416 56.021,50.533 55.998,50.537 C55.982,50.479 55.973,50.433 55.963,50.352 C55.981,50.345 56.002,50.381 56.004,50.279 C56.021,50.324 56.035,50.377 56.04,50.455 C56.055,50.412 56.072,50.504 56.089,50.55 C56.095,50.526 56.09,50.495 56.092,50.471 C56.053,50.434 56.041,50.227 56.007,50.246 C55.999,50.208 56.021,50.189 56.012,50.125 C56.001,50.142 55.99,50.066 55.976,50.084 C55.972,50.029 55.99,50.084 55.995,50.064 C55.988,49.98 55.962,50.01 55.944,49.98 C55.954,49.911 55.95,49.832 55.932,49.739 C55.919,49.713 55.926,49.797 55.916,49.777 C55.897,49.713 55.882,49.728 55.862,49.607 C55.852,49.624 55.837,49.687 55.826,49.709 C55.81,49.676 55.815,49.621 55.806,49.566 C55.821,49.581 55.818,49.545 55.829,49.504 C55.856,49.547 55.875,49.607 55.897,49.679 C55.914,49.6 55.935,49.639 55.955,49.642 C55.956,49.614 55.943,49.576 55.957,49.553 C55.944,49.559 55.935,49.484 55.928,49.565 C55.917,49.541 55.908,49.505 55.899,49.449 C55.907,49.422 55.914,49.47 55.919,49.444 C55.919,49.424 55.902,49.403 55.903,49.34 C55.874,49.347 55.845,49.283 55.814,49.295 C55.799,49.215 55.799,49.186 55.774,49.08 C55.789,49.018 55.807,49.082 55.823,49.047 C55.826,49.01 55.816,48.963 55.806,48.912 C55.845,48.797 55.866,48.973 55.89,49.098 C55.914,49.232 55.956,49.365 55.982,49.512 C56.001,49.629 56.009,49.753 56.033,49.783 C56.026,49.806 56.043,49.844 56.038,49.867 C56.052,49.911 56.063,49.893 56.074,49.951 C56.075,49.978 56.067,50.004 56.062,50.021 C56.075,50.086 56.088,50.061 56.101,50.051 C56.119,50.143 56.16,50.25 56.144,50.336 C56.148,50.361 56.154,50.35 56.159,50.326 C56.215,50.535 56.272,50.923 56.337,51.105 C56.337,51.148 56.35,51.198 56.346,51.238 C56.368,51.309 56.422,51.465 56.419,51.566 C56.473,51.706 56.537,51.98 56.572,52.214 C56.599,52.297 56.649,52.43 56.65,52.559 C56.727,52.754 56.795,53.209 56.858,53.43 C56.853,53.447 56.853,53.467 56.856,53.484 C56.835,53.465 56.826,53.401 56.806,53.376 C56.857,53.619 56.894,53.768 56.951,53.982 C56.962,53.997 56.971,53.918 56.985,53.985 C56.978,54.013 56.972,53.996 56.968,54.005 C57.015,54.358 57.055,54.417 57.118,54.685 C57.119,54.708 57.122,54.732 57.118,54.754 C57.086,54.705 57.055,54.68 57.02,54.53 Z M29.78,22.189 C29.793,22.237 29.79,22.273 29.762,22.221 C29.779,22.177 29.727,22.111 29.725,22.062 C29.69,22.013 29.649,21.995 29.616,21.876 C29.594,21.83 29.609,21.892 29.589,21.858 C29.568,21.82 29.539,21.771 29.527,21.737 C29.456,21.683 29.344,21.418 29.271,21.332 C29.217,21.213 29.162,21.157 29.129,21.127 C28.992,20.856 28.787,20.51 28.65,20.322 C28.646,20.297 28.641,20.276 28.641,20.259 C28.625,20.28 28.579,20.192 28.527,20.128 C28.502,20.043 28.436,19.91 28.404,19.9 C28.347,19.764 28.264,19.627 28.227,19.63 C28.207,19.599 28.2,19.57 28.195,19.543 C28.175,19.524 28.162,19.501 28.173,19.554 C28.147,19.495 28.144,19.501 28.106,19.432 C28.106,19.408 28.119,19.427 28.111,19.385 C28.052,19.277 27.997,19.185 27.954,19.065 C27.886,18.96 27.887,19.065 27.822,18.958 C27.82,18.936 27.82,18.912 27.82,18.89 C27.801,18.867 27.802,18.9 27.792,18.9 C27.782,18.876 27.776,18.855 27.765,18.831 C27.743,18.8 27.75,18.858 27.74,18.861 C27.72,18.823 27.711,18.793 27.687,18.754 C27.67,18.71 27.671,18.669 27.648,18.624 C27.639,18.65 27.624,18.598 27.601,18.548 C27.585,18.563 27.638,18.669 27.617,18.68 C27.585,18.629 27.563,18.587 27.529,18.513 C27.544,18.501 27.575,18.53 27.547,18.432 C27.576,18.47 27.605,18.515 27.633,18.589 C27.635,18.544 27.679,18.625 27.709,18.665 C27.706,18.641 27.693,18.612 27.687,18.588 C27.639,18.565 27.567,18.371 27.54,18.398 C27.521,18.365 27.536,18.341 27.509,18.282 C27.503,18.301 27.47,18.233 27.462,18.254 C27.442,18.203 27.476,18.25 27.475,18.229 C27.442,18.151 27.426,18.186 27.401,18.165 C27.389,18.095 27.362,18.021 27.318,17.937 C27.298,17.916 27.329,17.995 27.314,17.978 C27.277,17.922 27.267,17.942 27.211,17.832 C27.206,17.851 27.211,17.916 27.207,17.94 C27.182,17.913 27.171,17.859 27.146,17.81 C27.165,17.819 27.151,17.785 27.149,17.743 C27.187,17.776 27.225,17.828 27.267,17.89 C27.259,17.81 27.29,17.84 27.31,17.837 C27.303,17.811 27.28,17.779 27.286,17.752 C27.276,17.761 27.245,17.694 27.262,17.773 C27.245,17.752 27.225,17.721 27.2,17.67 C27.2,17.642 27.22,17.686 27.218,17.66 C27.211,17.64 27.189,17.625 27.171,17.565 C27.146,17.58 27.099,17.528 27.073,17.548 C27.035,17.476 27.027,17.449 26.971,17.354 C26.967,17.291 27.003,17.347 27.008,17.309 C27,17.272 26.977,17.23 26.952,17.185 C26.955,17.064 27.027,17.225 27.087,17.337 C27.149,17.458 27.229,17.573 27.298,17.706 C27.351,17.812 27.395,17.928 27.427,17.949 C27.427,17.973 27.455,18.005 27.457,18.028 C27.483,18.066 27.488,18.045 27.517,18.098 C27.525,18.124 27.525,18.149 27.525,18.168 C27.557,18.226 27.562,18.198 27.571,18.185 C27.616,18.267 27.687,18.357 27.697,18.444 C27.709,18.467 27.711,18.455 27.709,18.431 C27.824,18.613 27.994,18.967 28.11,19.122 C28.123,19.163 28.149,19.207 28.158,19.245 C28.2,19.306 28.298,19.44 28.325,19.538 C28.418,19.655 28.561,19.897 28.664,20.11 C28.714,20.182 28.802,20.293 28.84,20.416 C28.973,20.581 29.172,20.995 29.298,21.187 C29.298,21.205 29.304,21.223 29.312,21.239 C29.286,21.228 29.259,21.169 29.232,21.151 C29.353,21.368 29.433,21.499 29.551,21.687 C29.566,21.697 29.551,21.619 29.584,21.679 C29.586,21.707 29.574,21.693 29.573,21.703 C29.724,22.026 29.779,22.071 29.918,22.308 C29.926,22.33 29.937,22.352 29.939,22.374 C29.895,22.336 29.857,22.322 29.78,22.189 Z M53.47,59.404 C53.325,59.094 53.281,58.746 53.18,58.434 C52.946,58.055 52.997,57.663 52.817,57.266 C52.79,57.207 52.831,57.234 52.822,57.199 C52.671,56.785 52.635,56.434 52.511,56.074 C52.462,55.937 52.34,55.763 52.428,55.707 C52.403,55.611 52.336,55.519 52.318,55.432 C52.29,55.284 52.334,55.19 52.289,55.043 C52.142,54.574 52.092,54.203 52.019,53.803 C52.004,53.734 51.958,53.647 51.944,53.581 C51.862,53.201 51.867,52.918 51.757,52.505 C51.771,52.502 51.763,52.475 51.785,52.48 C51.68,52.289 51.749,52.21 51.66,52.033 C51.636,51.978 51.682,52.008 51.683,51.984 C51.599,51.865 51.609,51.789 51.593,51.683 C51.581,51.614 51.502,51.497 51.488,51.414 C51.429,51.162 51.381,50.938 51.384,50.768 C51.312,50.672 51.314,50.588 51.303,50.514 C51.451,50.7 51.395,50.834 51.529,51.008 C51.49,51.129 51.672,51.44 51.591,51.481 C51.608,51.52 51.657,51.547 51.67,51.586 C51.694,51.656 51.627,51.616 51.633,51.668 C51.725,51.796 51.732,51.902 51.687,51.945 C51.722,52.002 51.768,52.051 51.802,52.111 C51.812,52.348 51.906,52.609 51.964,52.881 C51.95,52.883 51.914,52.866 51.908,52.879 C51.91,52.916 51.965,52.93 51.982,52.959 C52.01,53.137 52.038,53.223 52.084,53.408 C52.061,53.395 52.061,53.406 52.036,53.391 C52.052,53.441 52.099,53.478 52.114,53.532 C52.086,53.702 52.244,54.051 52.229,54.238 C52.269,54.311 52.303,54.417 52.248,54.418 C52.314,54.551 52.382,54.713 52.322,54.749 C52.494,55.109 52.514,55.492 52.61,55.82 C52.578,55.803 52.577,55.819 52.536,55.79 C52.587,55.89 52.728,56.021 52.683,56.088 C52.74,56.168 52.71,56.216 52.747,56.314 C52.754,56.345 52.731,56.325 52.713,56.315 C52.74,56.369 52.792,56.415 52.815,56.472 C52.804,56.779 53.088,57.291 53.109,57.666 C53.124,57.71 53.165,57.744 53.181,57.786 C53.324,58.268 53.291,58.636 53.5,59.172 C53.52,59.218 53.39,59.166 53.4,59.197 C53.435,59.272 53.55,59.347 53.581,59.426 C53.567,59.421 53.484,59.413 53.47,59.404 Z M31.893,24.228 C31.664,23.972 31.385,23.691 31.199,23.422 C30.866,23.127 30.734,22.757 30.447,22.428 C30.404,22.38 30.451,22.394 30.433,22.364 C30.169,22.01 30.033,21.685 29.81,21.376 C29.725,21.259 29.557,21.127 29.625,21.049 C29.573,20.964 29.483,20.894 29.44,20.816 C29.371,20.683 29.386,20.581 29.3,20.452 C29.025,20.046 28.87,19.706 28.684,19.342 C28.65,19.282 28.581,19.212 28.549,19.152 C28.36,18.812 28.284,18.539 28.059,18.176 C28.072,18.168 28.056,18.145 28.079,18.145 C27.923,17.991 27.967,17.895 27.83,17.752 C27.792,17.707 27.844,17.722 27.838,17.699 C27.724,17.608 27.711,17.532 27.666,17.436 C27.633,17.374 27.525,17.284 27.487,17.208 C27.358,16.985 27.248,16.784 27.202,16.62 C27.105,16.548 27.083,16.468 27.051,16.4 C27.246,16.536 27.23,16.681 27.409,16.808 C27.407,16.936 27.671,17.181 27.605,17.244 C27.633,17.276 27.687,17.287 27.711,17.321 C27.754,17.381 27.679,17.362 27.7,17.41 C27.824,17.506 27.861,17.605 27.83,17.66 C27.88,17.705 27.938,17.738 27.989,17.785 C28.067,18.01 28.232,18.233 28.366,18.476 C28.353,18.482 28.314,18.476 28.312,18.491 C28.324,18.526 28.381,18.522 28.406,18.546 C28.484,18.707 28.535,18.782 28.633,18.946 C28.607,18.941 28.61,18.951 28.581,18.943 C28.611,18.987 28.667,19.01 28.698,19.056 C28.72,19.227 28.971,19.515 29.011,19.699 C29.07,19.758 29.133,19.849 29.081,19.865 C29.183,19.974 29.294,20.109 29.248,20.162 C29.516,20.457 29.645,20.818 29.832,21.105 C29.796,21.097 29.8,21.113 29.752,21.097 C29.83,21.177 30.003,21.264 29.978,21.34 C30.057,21.4 30.042,21.454 30.105,21.539 C30.121,21.565 30.093,21.553 30.073,21.549 C30.115,21.593 30.178,21.621 30.216,21.669 C30.294,21.966 30.714,22.374 30.842,22.728 C30.869,22.766 30.919,22.786 30.946,22.822 C31.222,23.242 31.431,23.563 31.786,24.017 C31.818,24.055 31.747,24.022 31.766,24.049 C31.82,24.111 31.884,24.169 31.936,24.235 C31.922,24.235 31.908,24.231 31.893,24.228 Z M55.18,47.61 C55.181,47.561 55.194,47.527 55.207,47.585 C55.177,47.623 55.206,47.701 55.195,47.747 C55.213,47.806 55.247,47.835 55.244,47.957 C55.252,48.008 55.256,47.944 55.265,47.982 C55.274,48.025 55.288,48.08 55.29,48.116 C55.341,48.189 55.371,48.476 55.415,48.58 C55.433,48.709 55.469,48.778 55.491,48.816 C55.543,49.116 55.638,49.506 55.713,49.727 C55.711,49.751 55.709,49.773 55.704,49.789 C55.725,49.773 55.743,49.872 55.775,49.947 C55.773,50.037 55.798,50.184 55.825,50.201 C55.84,50.349 55.88,50.504 55.916,50.512 C55.925,50.547 55.925,50.577 55.92,50.604 C55.934,50.629 55.941,50.654 55.945,50.6 C55.953,50.664 55.957,50.66 55.973,50.736 C55.966,50.76 55.959,50.738 55.955,50.779 C55.98,50.9 56.005,51.006 56.012,51.133 C56.045,51.252 56.076,51.151 56.107,51.272 C56.102,51.293 56.095,51.318 56.088,51.339 C56.101,51.365 56.109,51.334 56.119,51.337 C56.121,51.363 56.121,51.385 56.124,51.41 C56.136,51.447 56.146,51.391 56.157,51.389 C56.165,51.432 56.164,51.463 56.176,51.508 C56.179,51.555 56.166,51.593 56.175,51.643 C56.191,51.621 56.19,51.676 56.198,51.729 C56.218,51.72 56.198,51.603 56.221,51.599 C56.237,51.656 56.246,51.703 56.257,51.785 C56.238,51.791 56.217,51.754 56.215,51.857 C56.198,51.811 56.185,51.76 56.179,51.681 C56.164,51.724 56.146,51.633 56.129,51.587 C56.124,51.61 56.128,51.641 56.127,51.666 C56.166,51.702 56.178,51.91 56.212,51.891 C56.221,51.928 56.199,51.947 56.208,52.011 C56.219,51.994 56.231,52.069 56.245,52.052 C56.248,52.106 56.23,52.052 56.225,52.072 C56.233,52.155 56.259,52.127 56.276,52.155 C56.268,52.225 56.272,52.304 56.291,52.396 C56.302,52.424 56.296,52.338 56.306,52.359 C56.325,52.422 56.34,52.407 56.361,52.528 C56.371,52.512 56.385,52.448 56.396,52.427 C56.413,52.46 56.407,52.514 56.418,52.568 C56.402,52.555 56.405,52.591 56.394,52.633 C56.368,52.59 56.347,52.527 56.325,52.457 C56.309,52.535 56.289,52.498 56.269,52.494 C56.267,52.521 56.28,52.559 56.266,52.584 C56.279,52.577 56.289,52.65 56.295,52.57 C56.305,52.596 56.316,52.631 56.325,52.686 C56.316,52.714 56.31,52.666 56.304,52.691 C56.304,52.713 56.321,52.732 56.321,52.795 C56.351,52.789 56.379,52.853 56.411,52.84 C56.426,52.92 56.425,52.949 56.452,53.056 C56.437,53.117 56.419,53.053 56.402,53.088 C56.399,53.126 56.409,53.173 56.42,53.224 C56.382,53.338 56.36,53.163 56.335,53.037 C56.311,52.904 56.268,52.771 56.241,52.623 C56.221,52.507 56.213,52.383 56.189,52.353 C56.196,52.33 56.179,52.292 56.184,52.27 C56.17,52.225 56.159,52.244 56.146,52.185 C56.146,52.158 56.154,52.133 56.16,52.115 C56.146,52.051 56.132,52.076 56.12,52.086 C56.101,51.994 56.061,51.887 56.076,51.802 C56.071,51.775 56.065,51.787 56.061,51.811 C56.004,51.602 55.945,51.214 55.878,51.032 C55.878,50.989 55.866,50.939 55.869,50.9 C55.848,50.83 55.793,50.674 55.795,50.572 C55.74,50.433 55.675,50.158 55.639,49.926 C55.612,49.842 55.561,49.709 55.56,49.58 C55.481,49.385 55.411,48.931 55.347,48.71 C55.353,48.692 55.352,48.674 55.349,48.656 C55.37,48.675 55.379,48.738 55.4,48.764 C55.347,48.521 55.31,48.373 55.251,48.157 C55.24,48.143 55.232,48.223 55.217,48.156 C55.224,48.129 55.231,48.145 55.235,48.136 C55.186,47.782 55.146,47.725 55.082,47.457 C55.081,47.434 55.077,47.409 55.081,47.387 C55.113,47.436 55.145,47.461 55.18,47.61 Z M28.565,11.011 C28.549,10.964 28.55,10.928 28.582,10.978 C28.567,11.023 28.622,11.086 28.628,11.134 C28.665,11.182 28.707,11.198 28.748,11.313 C28.773,11.358 28.754,11.297 28.776,11.33 C28.8,11.367 28.832,11.413 28.846,11.446 C28.92,11.497 29.048,11.754 29.127,11.835 C29.189,11.95 29.247,12.003 29.281,12.031 C29.435,12.293 29.661,12.625 29.809,12.805 C29.815,12.828 29.821,12.85 29.822,12.867 C29.836,12.845 29.888,12.93 29.944,12.99 C29.975,13.074 30.049,13.203 30.081,13.209 C30.147,13.342 30.238,13.473 30.274,13.468 C30.296,13.498 30.306,13.526 30.312,13.554 C30.333,13.571 30.349,13.593 30.333,13.541 C30.363,13.598 30.366,13.592 30.408,13.659 C30.41,13.683 30.395,13.665 30.406,13.705 C30.472,13.81 30.532,13.899 30.583,14.016 C30.657,14.116 30.649,14.011 30.721,14.113 C30.724,14.135 30.726,14.16 30.727,14.182 C30.748,14.203 30.745,14.17 30.755,14.169 C30.767,14.193 30.773,14.214 30.786,14.237 C30.81,14.267 30.799,14.209 30.809,14.205 C30.832,14.242 30.842,14.271 30.869,14.309 C30.888,14.352 30.889,14.393 30.915,14.436 C30.922,14.41 30.941,14.461 30.967,14.509 C30.982,14.493 30.922,14.391 30.942,14.379 C30.978,14.427 31.003,14.468 31.042,14.54 C31.027,14.553 30.994,14.525 31.028,14.623 C30.997,14.586 30.965,14.542 30.933,14.47 C30.933,14.516 30.885,14.437 30.852,14.4 C30.856,14.423 30.871,14.451 30.878,14.475 C30.928,14.495 31.012,14.685 31.038,14.655 C31.059,14.687 31.045,14.712 31.076,14.769 C31.081,14.75 31.118,14.816 31.124,14.794 C31.147,14.844 31.111,14.799 31.113,14.82 C31.15,14.895 31.164,14.859 31.19,14.88 C31.206,14.948 31.238,15.021 31.288,15.101 C31.309,15.122 31.273,15.044 31.29,15.061 C31.33,15.113 31.339,15.094 31.4,15.2 C31.404,15.18 31.396,15.116 31.398,15.092 C31.425,15.117 31.439,15.17 31.468,15.217 C31.449,15.209 31.464,15.243 31.468,15.285 C31.428,15.254 31.388,15.204 31.342,15.146 C31.354,15.224 31.322,15.196 31.302,15.201 C31.31,15.226 31.335,15.257 31.331,15.285 C31.341,15.274 31.376,15.34 31.354,15.262 C31.372,15.282 31.395,15.311 31.422,15.36 C31.424,15.389 31.401,15.346 31.405,15.373 C31.413,15.392 31.436,15.405 31.457,15.464 C31.482,15.447 31.532,15.497 31.557,15.474 C31.599,15.544 31.609,15.571 31.671,15.662 C31.679,15.724 31.639,15.67 31.636,15.708 C31.647,15.746 31.672,15.786 31.701,15.83 C31.705,15.95 31.623,15.794 31.556,15.686 C31.486,15.569 31.399,15.459 31.322,15.331 C31.262,15.229 31.211,15.116 31.178,15.097 C31.177,15.073 31.147,15.042 31.144,15.02 C31.115,14.983 31.112,15.004 31.079,14.953 C31.069,14.929 31.068,14.902 31.067,14.883 C31.031,14.828 31.028,14.857 31.02,14.871 C30.97,14.791 30.894,14.705 30.878,14.62 C30.865,14.597 30.863,14.609 30.867,14.633 C30.741,14.458 30.549,14.116 30.423,13.969 C30.407,13.929 30.379,13.886 30.367,13.849 C30.323,13.79 30.216,13.663 30.183,13.567 C30.082,13.456 29.925,13.222 29.81,13.017 C29.755,12.948 29.66,12.842 29.614,12.722 C29.471,12.566 29.246,12.166 29.109,11.981 C29.108,11.963 29.101,11.946 29.092,11.93 C29.118,11.94 29.149,11.997 29.178,12.013 C29.042,11.805 28.955,11.679 28.825,11.498 C28.81,11.489 28.83,11.566 28.792,11.508 C28.789,11.48 28.802,11.493 28.802,11.483 C28.632,11.17 28.574,11.129 28.42,10.902 C28.411,10.88 28.399,10.859 28.395,10.836 C28.442,10.872 28.48,10.884 28.565,11.011 Z M29.319,19.455 C29.25,19.347 29.155,19.3 29.096,19.189 C28.999,19.015 28.985,18.813 28.875,18.651 C28.528,18.159 28.299,17.672 28.042,17.171 C27.996,17.091 27.918,17.025 27.873,16.942 C27.619,16.491 27.479,16.061 27.185,15.595 C27.196,15.572 27.174,15.541 27.193,15.519 C27.019,15.381 27.03,15.163 26.873,15.021 C26.83,14.976 26.876,14.955 26.866,14.917 C26.741,14.86 26.711,14.722 26.645,14.594 C26.601,14.507 26.482,14.442 26.428,14.34 C26.257,14.043 26.106,13.772 26.022,13.514 C25.922,13.468 25.879,13.342 25.833,13.244 C26.037,13.317 26.065,13.599 26.253,13.669 C26.289,13.91 26.579,14.117 26.541,14.294 C26.573,14.326 26.623,14.298 26.655,14.336 C26.707,14.408 26.639,14.446 26.669,14.51 C26.801,14.577 26.862,14.72 26.846,14.856 C26.904,14.89 26.965,14.895 27.016,14.937 C27.146,15.285 27.351,15.541 27.532,15.865 C27.521,15.889 27.489,15.912 27.49,15.941 C27.506,15.998 27.559,15.935 27.586,15.957 C27.697,16.182 27.761,16.278 27.89,16.483 C27.866,16.498 27.873,16.52 27.846,16.527 C27.885,16.581 27.936,16.574 27.974,16.633 C28.042,16.925 28.337,17.224 28.422,17.528 C28.488,17.585 28.568,17.692 28.525,17.773 C28.645,17.878 28.777,18.023 28.751,18.164 C29.062,18.459 29.273,19.009 29.512,19.363 C29.478,19.383 29.486,19.412 29.44,19.423 C29.528,19.503 29.703,19.497 29.703,19.666 C29.786,19.701 29.788,19.818 29.866,19.915 C29.886,19.942 29.86,19.953 29.843,19.965 C29.89,20.004 29.948,20.001 29.996,20.055 C30.143,20.531 30.617,20.893 30.826,21.431 C30.858,21.473 30.906,21.463 30.94,21.509 C31.29,22.025 31.561,22.429 31.989,22.936 C32.026,22.975 31.958,22.981 31.98,23.011 C32.046,23.079 32.117,23.125 32.181,23.204 C32.165,23.21 32.153,23.22 32.14,23.228 C31.874,22.967 31.557,22.704 31.32,22.384 C30.956,22.146 30.741,21.585 30.401,21.242 C30.352,21.198 30.396,21.176 30.372,21.133 C30.048,20.728 29.844,20.249 29.567,19.889 C29.462,19.749 29.282,19.655 29.319,19.455 Z M52.376,40.807 C52.376,40.807 52.242,41.029 52.101,41.184 C51.959,41.34 51.883,41.549 51.883,41.549 C51.849,41.605 51.758,41.773 51.752,41.839 C51.599,42.071 51.814,41.752 51.702,41.978 L51.671,42.08 C51.628,42.172 51.528,42.45 51.515,42.55 C51.477,42.592 51.413,42.654 51.414,42.744 C51.408,42.758 51.4,42.899 51.395,42.914 C51.323,43.09 51.385,43.234 51.355,43.457 C51.343,43.558 51.299,43.658 51.322,43.742 C51.274,43.887 51.276,44.151 51.331,44.305 C51.298,44.367 51.222,44.523 51.229,44.602 C51.246,44.889 51.172,45.149 51.228,45.428 L51.254,45.534 C51.254,45.534 51.249,45.773 51.234,45.801 C51.218,45.824 51.159,45.79 51.16,45.764 C51.16,45.738 51.106,45.426 51.106,45.426 L51.055,45.23 L51.093,45.092 C51.039,44.817 51.16,44.456 51.142,44.164 C51.136,44.089 51.12,44.031 51.153,43.972 C51.097,43.815 51.14,43.557 51.187,43.409 C51.167,43.324 51.21,43.223 51.222,43.125 C51.254,42.881 51.3,42.63 51.381,42.451 C51.381,42.361 51.411,42.309 51.45,42.265 C51.46,42.167 51.522,42.064 51.565,41.975 L51.566,41.926 C51.676,41.697 51.62,41.709 51.775,41.475 C51.779,41.412 51.835,41.355 51.87,41.295 L51.985,41.223 L52.078,41.006 L52.227,40.848 L52.377,40.659 L52.452,40.498 L52.696,40.429 L52.376,40.807 Z M61.539,28.541 C61.529,28.465 61.49,28.246 61.434,28.168 C61.418,27.86 61.38,28.017 61.282,27.676 L61.22,27.537 C61.178,27.401 61.021,27.012 60.941,26.893 C60.94,26.816 60.946,26.692 60.863,26.594 C60.855,26.575 60.732,26.414 60.724,26.393 C60.633,26.141 60.437,26.032 60.263,25.766 C60.182,25.645 60.133,25.498 60.033,25.425 C59.947,25.226 59.7,24.939 59.504,24.817 C59.48,24.721 59.411,24.487 59.333,24.406 C59.049,24.105 58.882,23.759 58.569,23.5 L58.446,23.407 C58.446,23.407 58.229,23.14 58.221,23.099 C58.214,23.06 58.304,23.046 58.329,23.076 C58.351,23.103 58.693,23.4 58.693,23.4 L58.924,23.573 L59.012,23.755 C59.321,24.011 59.533,24.507 59.821,24.811 C59.896,24.889 59.966,24.938 59.988,25.032 C60.186,25.156 60.385,25.475 60.473,25.675 C60.572,25.752 60.622,25.898 60.701,26.016 C60.895,26.31 61.081,26.623 61.165,26.888 C61.248,26.985 61.265,27.069 61.268,27.15 C61.348,27.266 61.381,27.43 61.423,27.565 L61.467,27.62 C61.568,27.961 61.748,28.301 61.763,28.61 C61.818,28.685 61.795,28.764 61.808,28.844 L61.716,28.952 L61.539,28.541 Z M61.472,26.848 C61.453,26.775 61.39,26.561 61.325,26.49 C61.275,26.186 61.255,26.347 61.119,26.019 L61.042,25.888 C60.985,25.757 60.784,25.389 60.691,25.278 C60.683,25.203 60.674,25.079 60.58,24.991 C60.571,24.973 60.43,24.827 60.419,24.806 C60.3,24.566 60.094,24.48 59.891,24.235 C59.797,24.124 59.732,23.984 59.624,23.922 C59.516,23.734 59.238,23.478 59.029,23.378 C58.995,23.286 58.899,23.061 58.813,22.99 C58.497,22.723 58.292,22.397 57.952,22.176 L57.819,22.096 C57.819,22.096 57.574,21.856 57.561,21.816 C57.55,21.778 57.637,21.754 57.665,21.782 C57.69,21.806 58.064,22.062 58.064,22.062 L58.313,22.207 L58.421,22.378 C58.757,22.598 59.024,23.067 59.344,23.336 C59.428,23.406 59.503,23.447 59.535,23.538 C59.746,23.638 59.979,23.933 60.089,24.122 C60.196,24.187 60.263,24.327 60.354,24.435 C60.58,24.705 60.8,24.995 60.914,25.249 C61.007,25.336 61.034,25.417 61.046,25.497 C61.138,25.604 61.19,25.763 61.246,25.892 L61.296,25.941 C61.436,26.27 61.652,26.587 61.702,26.892 C61.766,26.961 61.752,27.041 61.773,27.12 L61.695,27.237 L61.472,26.848 Z M52.465,39.574 C52.465,39.574 52.286,39.807 52.106,39.925 C51.927,40.047 51.813,40.305 51.813,40.305 C51.768,40.365 51.643,40.549 51.628,40.645 C51.425,40.875 51.562,40.789 51.394,41.103 L51.341,41.245 C51.276,41.372 51.118,41.761 51.091,41.902 C51.038,41.957 50.948,42.041 50.939,42.17 C50.931,42.189 50.907,42.391 50.898,42.412 C50.787,42.656 50.852,42.869 50.79,43.182 C50.764,43.324 50.696,43.464 50.717,43.587 C50.64,43.789 50.617,44.167 50.672,44.392 C50.622,44.477 50.509,44.692 50.508,44.805 C50.501,45.219 50.52,45.583 50.563,45.986 L50.586,46.14 C50.586,46.14 50.555,46.481 50.533,46.518 C50.51,46.55 50.437,46.496 50.44,46.459 C50.443,46.423 50.405,45.972 50.405,45.972 L50.359,45.687 L50.423,45.495 C50.381,45.096 50.435,44.592 50.44,44.174 C50.44,44.065 50.425,43.981 50.475,43.899 C50.42,43.672 50.501,43.305 50.577,43.1 C50.56,42.976 50.625,42.836 50.651,42.697 C50.718,42.352 50.803,41.998 50.928,41.749 C50.937,41.621 50.982,41.549 51.036,41.489 C51.061,41.35 51.151,41.209 51.215,41.084 L51.222,41.014 C51.388,40.699 51.497,40.33 51.701,40.099 C51.714,40.006 51.786,39.965 51.832,39.899 L51.973,39.886 L52.104,39.629 L52.294,39.51 L52.487,39.346 L52.593,39.159 L52.875,39.261 L52.465,39.574 Z M20.85,9.393 C20.952,9.527 21.127,9.662 21.229,9.797 C21.346,9.95 21.388,10.103 21.504,10.256 C21.618,10.408 21.806,10.56 21.919,10.713 C22.081,10.929 22.169,11.146 22.33,11.364 C22.859,12.083 23.379,12.813 23.882,13.558 C24.008,13.797 24.137,14.035 24.292,14.246 C24.585,14.791 24.91,15.308 25.223,15.832 C25.759,16.839 26.291,17.851 26.914,18.771 L26.914,18.818 C27.334,19.44 27.702,20.106 28.128,20.719 C28.631,21.522 29.141,22.32 29.703,23.065 C30.27,23.876 30.925,24.601 31.652,25.255 L31.697,25.255 C31.991,25.597 32.398,25.82 32.771,26.083 C32.802,26.089 32.781,26.041 32.817,26.051 C32.812,26.087 32.838,26.091 32.83,26.133 C33.451,26.529 34.145,26.854 34.86,27.159 C34.896,27.165 34.913,27.151 34.94,27.145 C34.956,27.229 35.085,27.239 35.161,27.228 C35.172,27.249 35.189,27.264 35.198,27.286 C35.833,27.497 36.492,27.731 37.203,27.836 C37.48,27.928 37.767,27.972 38.042,27.999 C38.132,28.047 38.265,28.065 38.346,28.033 C38.35,28.063 38.38,28.063 38.392,28.081 C38.707,28.103 39.021,28.199 39.338,28.161 C39.558,28.228 39.979,28.246 40.258,28.209 C40.322,28.24 40.412,28.229 40.48,28.209 C40.569,28.268 40.705,28.207 40.82,28.209 C40.904,28.211 40.987,28.244 41.075,28.244 C41.302,28.246 41.531,28.215 41.741,28.185 C41.85,28.255 41.968,28.155 42.044,28.219 C41.977,28.253 41.886,28.257 41.847,28.29 C41.958,28.32 42.046,28.213 42.149,28.268 C42.356,28.169 42.648,28.153 42.963,28.139 C43.069,28.135 43.121,28.105 43.199,28.091 C43.223,28.087 43.255,28.105 43.279,28.103 C43.689,28.069 44.236,28.015 44.585,27.892 C44.822,27.896 45.103,27.814 45.286,27.766 C45.452,27.721 45.635,27.711 45.798,27.671 C46.094,27.599 46.39,27.527 46.685,27.448 C46.802,27.422 46.908,27.358 47.024,27.332 C47.165,27.302 47.328,27.304 47.468,27.251 C47.538,27.228 47.645,27.195 47.735,27.181 C48.396,27.097 49.077,26.934 49.706,26.88 C50.264,26.83 50.489,26.728 50.839,26.684 C51.252,26.631 51.456,26.623 51.761,26.619 C52.326,26.617 52.875,26.739 53.416,26.822 C53.412,26.844 53.432,26.844 53.44,26.856 C53.575,26.826 53.669,26.957 53.799,26.924 C54.084,27.037 54.279,27.191 54.575,27.27 C54.588,27.276 54.601,27.282 54.613,27.288 C54.673,27.34 54.747,27.384 54.824,27.418 C54.837,27.426 54.854,27.436 54.868,27.446 C54.843,27.488 54.854,27.535 54.938,27.561 C55.07,27.603 55.194,27.665 55.307,27.746 C55.646,28.093 55.894,28.541 56.181,28.944 C56.203,29.015 56.234,29.083 56.268,29.151 C56.47,29.665 56.565,29.617 56.684,30.008 C56.833,30.502 56.887,30.722 56.916,31.026 C56.945,31.51 57.001,31.867 56.945,32.478 C56.92,32.761 56.947,33.06 56.916,33.32 C56.889,33.551 56.796,33.799 56.771,33.988 C56.711,34.436 56.504,34.734 56.51,34.744 C56.51,34.744 56.449,34.859 56.252,35.127 C56.044,35.41 55.61,35.701 55.609,35.701 C55.486,35.788 54.701,36.519 54.29,36.695 C54.173,36.748 53.954,37.037 53.926,36.838 C53.657,37.096 53.492,37.351 53.162,37.508 C53.083,37.569 52.859,37.848 52.782,37.912 C52.602,38.064 52.216,38.531 51.971,38.766 C51.933,38.756 51.957,38.804 51.913,38.789 C51.852,38.857 51.796,38.932 51.725,38.986 C51.477,39.271 51.296,39.603 51.073,39.906 C51.022,39.975 50.938,40.023 50.933,40.117 C50.705,40.368 50.613,40.746 50.443,41.072 L50.443,41.143 C50.378,41.273 50.282,41.422 50.267,41.562 C50.206,41.625 50.16,41.705 50.164,41.832 C50.035,42.089 49.97,42.453 49.929,42.8 C49.912,42.944 49.845,43.087 49.882,43.207 C49.81,43.745 49.769,44.262 49.758,44.799 C49.753,45.082 49.756,45.372 49.767,45.674 C49.774,45.905 49.787,46.145 49.804,46.393 C49.82,46.617 49.839,46.851 49.862,47.094 C49.967,47.589 50.078,48.08 50.192,48.567 C50.28,48.94 50.443,49.311 50.534,49.678 C50.579,49.863 50.553,50.048 50.599,50.232 C50.676,50.539 50.826,50.844 50.903,51.146 C50.972,51.418 50.968,51.687 51.037,51.956 C51.11,52.245 51.255,52.531 51.327,52.816 C51.425,53.21 51.448,53.6 51.539,53.983 C51.602,54.25 51.735,54.513 51.793,54.773 C51.86,55.072 51.85,55.367 51.908,55.66 C51.977,56.005 52.112,56.346 52.167,56.68 L52.355,56.974 C52.372,57.002 52.372,57.043 52.385,57.074 C52.375,57.098 52.355,57.1 52.351,57.129 C52.441,57.511 52.489,58.01 52.676,58.342 C52.631,58.597 52.779,58.879 52.89,59.09 C53.03,59.476 53.032,59.853 53.186,60.225 C53.189,60.315 53.204,60.404 53.239,60.5 C53.246,60.518 53.26,60.529 53.271,60.54 C53.252,60.576 53.237,60.607 53.224,60.646 C53.206,60.693 53.214,60.736 53.234,60.768 C53.235,60.867 53.271,60.961 53.336,61.059 C53.336,61.077 53.339,61.094 53.339,61.112 C53.327,61.127 53.315,61.141 53.312,61.154 C53.27,61.412 53.296,61.674 53.27,61.934 C53.259,62.068 53.303,62.18 53.336,62.297 C53.312,62.318 53.292,62.344 53.286,62.371 C53.241,62.557 53.203,62.744 53.166,62.932 C53.108,63.037 53.058,63.146 53.031,63.272 C53.023,63.302 53.051,63.323 53.093,63.34 C53.09,63.353 53.087,63.367 53.085,63.383 C53.085,63.386 53.085,63.389 53.085,63.389 C53.025,63.41 52.977,63.44 52.968,63.486 C52.906,63.744 52.818,64 52.734,64.256 C52.637,64.465 52.542,64.68 52.457,64.896 C52.456,64.9 52.457,64.904 52.455,64.908 C52.453,64.912 52.451,64.918 52.448,64.924 C52.378,64.943 52.391,64.988 52.336,65.024 C52.354,65.078 52.287,65.134 52.254,65.162 C52.242,65.189 52.27,65.189 52.253,65.222 C52.07,65.434 52.066,65.424 51.935,65.706 C51.834,65.797 51.632,65.967 51.595,66.098 C51.537,66.059 51.512,66.146 51.475,66.172 C51.516,66.174 51.531,66.191 51.538,66.219 C51.511,66.258 51.474,66.355 51.384,66.346 C51.351,66.368 51.407,66.38 51.384,66.428 C51.34,66.451 51.279,66.443 51.263,66.502 C51.269,66.532 51.091,66.68 51.095,66.714 C51,66.779 50.809,66.904 50.719,66.953 C50.701,67.055 50.613,67.057 50.559,67.104 C50.612,67.114 50.384,67.174 50.381,67.225 C50.254,67.325 50.273,67.377 50.084,67.39 C49.908,67.509 49.965,67.594 49.775,67.689 C49.771,67.832 49.609,67.871 49.469,67.862 C49.434,67.98 49.286,67.943 49.208,68.006 C49.354,68.124 49.794,68.055 50.201,67.982 C50.136,68.004 50.636,67.895 49.771,68.242 C49.749,68.246 49.73,68.203 49.724,68.25 C49.716,68.289 49.773,68.283 49.756,68.326 C49.726,68.352 49.713,68.404 49.67,68.417 C49.636,68.377 49.553,68.393 49.548,68.443 C49.538,68.47 49.6,68.444 49.575,68.484 C49.561,68.515 48.847,68.777 48.843,68.823 C48.924,68.777 49.08,68.809 49.167,68.805 C49.236,68.693 49.714,68.698 49.812,68.628 C49.768,68.579 49.963,68.598 49.917,68.557 C49.986,68.547 50.068,68.477 50.112,68.432 C50.245,68.484 50.191,68.233 50.265,68.407 C50.258,68.438 50.354,68.279 50.346,68.313 C50.45,68.307 50.977,67.781 51.089,67.81 C51.075,67.865 50.485,68.344 50.467,68.403 C50.36,68.467 50.236,68.506 50.179,68.635 C50.228,68.705 49.714,68.961 49.793,69.034 C49.856,68.978 50.689,68.679 51.213,68.316 C51.165,68.604 50.494,68.879 50.49,68.939 C50.47,68.954 50.44,68.955 50.416,68.963 C50.361,69.105 50.257,69.176 50.191,69.301 C50.204,69.354 50.242,69.392 50.233,69.463 L50.326,69.48 C50.391,69.371 50.524,69.359 50.627,69.307 C50.622,69.373 50.682,69.366 50.641,69.439 C50.707,69.399 50.864,69.299 50.967,69.311 C50.974,69.275 50.945,69.266 50.946,69.235 C50.969,69.199 51.017,69.183 51.034,69.146 C51.05,69.142 51.069,69.139 51.084,69.131 C51.274,69.044 51.463,68.955 51.637,68.838 C51.721,68.777 51.724,68.694 51.66,68.637 C51.691,68.589 51.728,68.596 51.839,68.592 C51.856,68.508 52.271,68.393 52.274,68.245 C52.35,68.215 52.386,68.205 52.477,68.184 L52.49,68.105 C52.565,68.09 52.628,68.062 52.66,68.021 C52.682,67.994 52.708,67.967 52.735,67.939 C52.848,67.917 52.922,67.83 52.933,67.742 C53.047,67.64 53.16,67.543 53.263,67.431 C53.279,67.41 53.286,67.394 53.291,67.374 C53.328,67.34 53.354,67.291 53.336,67.258 C53.358,67.26 53.357,67.275 53.38,67.275 C53.415,67.191 53.496,67.114 53.587,67.041 C53.628,67.051 53.631,67.07 53.659,67.041 C53.68,66.955 53.606,67.006 53.587,66.982 C53.644,66.924 53.703,66.812 53.778,66.825 C53.796,66.783 53.742,66.77 53.783,66.744 C53.819,66.734 53.852,66.801 53.863,66.746 C53.863,66.71 53.804,66.714 53.816,66.666 C53.912,66.68 53.884,66.523 53.981,66.543 C53.995,66.51 53.966,66.506 53.984,66.472 C54.008,66.482 54.012,66.454 54.044,66.471 C54.153,66.234 54.379,66.162 54.463,65.89 C54.563,65.861 54.483,65.717 54.519,65.629 C54.562,65.627 54.566,65.658 54.588,65.643 C54.682,65.521 54.748,65.432 54.807,65.275 C54.821,65.293 54.799,65.275 54.85,65.266 C54.935,65.174 54.915,65.242 54.976,65.121 C54.96,65.139 55.088,65.032 55.092,65.008 C55.207,64.878 55.133,64.809 55.238,64.686 C55.177,64.561 55.393,64.602 55.359,64.382 C55.473,64.398 55.555,64.151 55.521,64.061 C55.735,64.062 55.678,63.851 55.728,63.713 L55.808,63.623 C55.821,63.59 55.916,63.516 55.921,63.487 C56.063,63.412 55.947,63.373 56.073,63.268 C56.101,63.321 56.09,63.102 56.141,63.135 C56.166,63.108 56.157,63.072 56.199,63.055 C56.228,63.061 56.187,62.987 56.204,62.974 C56.258,62.908 56.27,62.786 56.331,62.723 C56.447,62.799 56.362,62.608 56.396,62.545 C56.383,62.51 56.34,62.561 56.331,62.523 C56.328,62.486 56.354,62.492 56.34,62.468 C56.355,62.455 56.374,62.443 56.386,62.426 C56.396,62.406 56.406,62.387 56.418,62.363 C56.434,62.358 56.45,62.353 56.459,62.332 C56.451,62.332 56.445,62.329 56.439,62.328 C56.654,61.941 56.534,62.01 56.666,61.588 C56.692,61.504 56.659,61.441 56.603,61.402 C56.774,61.051 56.896,61.234 56.928,60.842 C56.929,60.822 57.051,60.496 57.032,60.484 C57.041,60.434 57.144,60.218 57.154,60.164 C57.216,60.164 57.263,59.88 57.258,59.834 C57.329,59.755 57.298,59.631 57.293,59.592 C57.241,59.468 57.419,59.346 57.362,59.227 C57.409,59.156 57.395,59.084 57.449,59.002 C57.436,58.902 57.462,58.631 57.536,58.516 C57.437,58.158 57.592,58.328 57.553,57.941 C57.594,57.98 57.586,57.654 57.623,57.646 C57.605,57.496 57.681,57.331 57.64,57.195 L57.687,56.912 C57.732,56.533 57.764,56.202 57.751,56.053 C57.728,55.764 57.7,55.471 57.666,55.172 C57.628,54.842 57.512,54.506 57.459,54.164 C57.426,53.942 57.461,53.719 57.421,53.491 C57.372,53.211 57.317,52.928 57.257,52.641 C57.209,52.416 57.085,52.187 57.031,51.958 C56.954,51.634 56.946,51.309 56.866,50.984 C56.766,50.585 56.665,50.187 56.566,49.793 C56.464,49.383 56.365,48.977 56.272,48.576 C56.237,48.426 56.277,48.277 56.245,48.129 C56.179,47.828 56.046,47.53 55.993,47.239 C55.937,46.937 55.963,46.641 55.926,46.352 C55.881,46.007 55.778,45.672 55.766,45.35 C55.753,45.008 55.761,44.679 55.793,44.368 C55.839,43.934 55.934,43.533 56.09,43.176 C56.235,42.842 56.605,42.434 56.842,42.196 C57.079,41.959 57.347,41.742 57.779,41.633 C57.827,41.613 57.876,41.591 57.928,41.568 C58.012,41.535 57.73,41.509 57.815,41.488 C57.816,41.482 57.821,41.478 57.823,41.471 C57.831,41.473 57.836,41.478 57.84,41.482 C57.871,41.475 57.903,41.469 57.933,41.465 C58.043,41.4 58.179,41.359 58.267,41.271 C58.633,41.117 58.929,40.887 59.269,40.701 C59.293,40.684 59.29,40.637 59.316,40.621 C59.351,40.6 59.373,40.623 59.397,40.607 C59.905,40.264 60.404,39.91 60.867,39.523 C60.884,39.488 60.859,39.484 60.879,39.455 C61.021,39.402 61.078,39.264 61.206,39.197 C61.231,39.143 61.261,39.094 61.287,39.047 C61.373,39.013 61.431,38.946 61.463,38.857 C61.68,38.729 61.77,38.465 61.963,38.309 C61.958,38.332 61.979,38.381 61.941,38.368 C61.887,38.398 61.87,38.482 61.87,38.531 C61.84,38.564 61.76,38.605 61.801,38.674 C61.872,38.645 61.913,38.585 61.907,38.475 C61.936,38.438 61.976,38.41 61.976,38.344 C61.998,38.332 62.02,38.312 62.047,38.298 C62.052,38.246 62.164,38.084 62.153,38.012 C62.342,37.668 62.545,37.446 62.733,37.061 C62.921,36.676 63.021,36.273 63.152,35.859 C63.18,35.771 63.241,35.657 63.269,35.591 C63.329,35.459 63.367,35.262 63.421,35.079 C63.47,34.918 63.567,34.768 63.538,34.637 C63.626,34.568 63.605,34.465 63.633,34.366 C63.672,34.205 63.734,34.043 63.761,33.866 C63.853,33.186 63.929,33.139 63.923,32.384 C63.921,32.271 63.923,32.157 63.923,32.045 C63.923,31.87 63.893,31.685 63.885,31.509 C63.878,31.36 63.91,31.213 63.9,31.065 C63.857,30.561 63.794,30.069 63.709,29.591 C63.636,29.178 63.545,28.776 63.437,28.386 C63.403,28.264 63.294,28.142 63.257,28.022 C63.185,27.792 63.178,27.567 63.092,27.347 C62.979,27.06 62.852,26.781 62.715,26.511 C62.648,26.379 62.507,26.249 62.437,26.123 C62.374,26.009 62.384,25.897 62.32,25.788 C62.268,25.699 62.216,25.612 62.165,25.526 C62.051,25.336 61.937,25.153 61.825,24.977 C61.823,24.912 61.715,24.882 61.682,24.848 C61.542,24.567 61.435,24.328 61.252,24.091 C61.087,23.869 60.92,23.648 60.748,23.433 C60.667,23.329 60.657,23.228 60.573,23.126 C60.189,22.666 59.706,22.235 59.232,21.864 C59.145,21.753 59.042,21.659 58.896,21.605 C58.821,21.493 58.67,21.452 58.58,21.35 C58.492,21.35 58.462,21.288 58.418,21.255 C58.188,21.103 58.291,20.999 58.036,20.872 C57.319,20.515 56.55,20.216 55.751,19.951 C55.72,19.949 55.693,19.949 55.679,19.962 C55.665,19.901 55.59,19.924 55.541,19.927 C55.522,19.915 55.516,19.897 55.504,19.879 C55.016,19.762 54.552,19.616 54.01,19.599 C52.96,19.401 52.154,19.505 51.088,19.619 C50.952,19.633 50.812,19.648 50.667,19.662 C50.521,19.676 50.368,19.69 50.209,19.703 C49.491,19.757 49.498,19.716 49.498,19.716 L47.98,20.043 C47.98,20.043 47.507,20.128 46.904,20.238 C46.636,20.288 46.342,20.342 46.054,20.396 C45.637,20.474 45.23,20.552 44.924,20.615 C44.468,20.709 43.964,20.816 43.572,20.942 C43.473,20.972 43.268,21.059 43.268,21.059 C43.268,21.059 43.135,21.044 43.07,21.057 C42.621,21.171 42.167,21.249 41.705,21.316 C41.422,21.356 41.131,21.358 40.82,21.372 C40.233,21.4 39.663,21.42 39.129,21.372 C39.019,21.364 38.907,21.374 38.8,21.362 C38.784,21.358 38.784,21.332 38.766,21.326 C38.716,21.312 38.637,21.328 38.577,21.316 C38.37,21.264 38.149,21.211 37.95,21.163 C37.904,21.151 37.852,21.165 37.81,21.151 C37.781,21.145 37.769,21.113 37.74,21.105 C37.588,21.062 37.419,21.062 37.272,20.999 C37.243,20.988 37.229,20.962 37.203,20.952 C37.103,20.918 36.946,20.898 36.888,20.848 C36.864,20.828 36.858,20.846 36.829,20.848 C36.79,20.77 36.662,20.751 36.585,20.744 C36.432,20.571 36.144,20.539 35.978,20.38 C35.952,20.38 35.943,20.362 35.908,20.37 C35.858,20.232 35.697,20.209 35.64,20.079 C35.611,20.084 35.615,20.057 35.582,20.066 C35.277,19.707 34.964,19.353 34.671,18.982 C34.675,18.954 34.65,18.957 34.659,18.922 C34.506,18.812 34.415,18.641 34.299,18.492 C34.281,18.477 34.242,18.484 34.227,18.47 C34.248,18.353 34.134,18.277 34.076,18.2 C33.972,18.053 33.879,17.894 33.751,17.769 C33.751,17.742 33.729,17.733 33.738,17.699 C33.442,17.43 33.294,17.016 33.003,16.744 C32.936,16.518 32.731,16.433 32.666,16.206 C32.601,16.167 32.558,16.114 32.502,16.065 C32.498,16.028 32.484,15.999 32.49,15.95 C32.317,15.703 32.101,15.508 31.978,15.215 C31.878,15.159 31.844,15.036 31.755,14.97 C31.537,14.578 31.308,14.198 31.032,13.861 C31.045,13.734 30.908,13.651 30.858,13.547 C30.812,13.538 30.839,13.598 30.788,13.582 C30.781,13.525 30.805,13.508 30.811,13.464 C30.701,13.313 30.612,13.095 30.46,13.023 C30.47,12.993 30.476,12.958 30.472,12.916 C30.394,12.795 30.314,12.671 30.204,12.578 C30.189,12.499 30.137,12.459 30.088,12.414 C30.058,12.309 30.01,12.221 29.924,12.169 C29.838,11.968 29.693,11.824 29.575,11.657 C29.589,11.655 29.588,11.638 29.588,11.623 C29.561,11.595 29.521,11.585 29.503,11.551 C29.221,11.059 28.855,10.646 28.547,10.177 C28.521,10.154 28.493,10.138 28.467,10.115 C28.048,9.535 27.59,8.992 27.105,8.477 L26.78,8.203 C26.485,7.862 26.173,7.535 25.825,7.247 C25.777,7.153 25.697,7.094 25.614,7.037 C25.227,6.643 24.833,6.256 24.402,5.906 C24.402,5.887 24.4,5.868 24.389,5.858 C24.274,5.813 24.228,5.693 24.097,5.661 C24.076,5.579 23.985,5.572 23.957,5.497 C23.943,5.488 23.926,5.482 23.901,5.485 C23.718,5.286 23.471,5.151 23.28,4.96 L23.212,4.96 C23.117,4.841 23,4.745 22.838,4.692 C22.82,4.675 22.831,4.637 22.814,4.621 C22.53,4.478 22.345,4.237 22.045,4.109 C21.532,3.667 20.84,3.41 20.227,3.07 C19.897,2.972 19.66,2.782 19.329,2.687 C19.231,2.632 19.134,2.583 19.031,2.536 L19.045,2.515 C19.033,2.522 19.024,2.525 19.013,2.528 C18.944,2.493 18.873,2.461 18.801,2.431 C18.761,2.42 18.726,2.407 18.692,2.392 C18.687,2.397 18.681,2.397 18.668,2.395 C18.662,2.384 18.654,2.377 18.649,2.368 C18.606,2.346 18.569,2.319 18.537,2.287 C18.468,2.259 18.396,2.257 18.327,2.225 C18.3,2.194 18.328,2.172 18.3,2.137 C18.209,2.155 18.128,2.104 18.049,2.048 C17.939,2.078 17.836,2.053 17.738,2.021 C17.714,1.985 17.772,1.967 17.802,1.939 C17.659,1.814 17.491,1.841 17.351,1.708 C17.286,1.753 17.232,1.744 17.192,1.676 C17.212,1.663 17.227,1.673 17.246,1.657 C17.184,1.605 17.12,1.569 17.035,1.648 C16.919,1.541 16.79,1.67 16.694,1.603 C16.713,1.592 16.732,1.577 16.75,1.564 C16.612,1.545 16.499,1.489 16.41,1.413 C16.314,1.366 16.207,1.392 16.12,1.298 C16.017,1.347 15.811,1.375 15.838,1.213 C15.804,1.188 15.756,1.249 15.73,1.181 C15.673,1.218 15.678,1.213 15.627,1.253 C15.517,1.185 15.377,1.286 15.276,1.146 C15.268,1.132 15.287,1.121 15.304,1.109 C15.23,1.033 15.112,0.982 15.044,1.062 C14.977,1.036 14.918,0.968 14.831,1.049 C14.601,0.914 14.322,1.041 14.088,0.917 C14.044,0.936 14.085,0.966 14.065,0.984 C13.983,0.906 13.8,0.933 13.653,0.884 C13.657,0.904 13.66,0.921 13.655,0.937 C13.642,0.973 13.726,0.947 13.748,0.996 C13.75,1.029 13.748,1.059 13.763,1.091 C13.833,1.113 13.903,1.143 13.984,1.112 C14.004,1.146 13.991,1.169 13.99,1.196 C13.944,1.191 13.889,1.23 13.845,1.209 C13.865,1.185 13.905,1.218 13.872,1.171 C13.836,1.157 13.609,1.171 13.536,1.213 C13.584,1.285 13.663,1.194 13.72,1.226 C13.708,1.255 13.663,1.278 13.675,1.311 C13.547,1.278 13.401,1.36 13.274,1.305 C13.127,1.42 12.972,1.366 12.816,1.381 C12.796,1.341 12.768,1.361 12.754,1.317 C12.719,1.365 12.658,1.352 12.579,1.386 C12.725,1.47 12.96,1.455 13.048,1.498 C12.772,1.525 12.495,1.553 12.238,1.464 C12.194,1.526 12.134,1.486 12.125,1.526 C12.257,1.662 12.425,1.601 12.569,1.691 C12.455,1.751 12.371,1.645 12.262,1.674 C12.262,1.603 12.093,1.674 12.126,1.577 C12.06,1.648 12.208,1.688 12.251,1.684 C12.012,1.848 11.758,1.51 11.578,1.749 C11.445,1.743 11.302,1.774 11.188,1.684 C11.145,1.728 11.116,1.702 11.079,1.726 C11.029,1.676 10.967,1.698 10.9,1.744 C10.81,1.759 10.68,1.686 10.616,1.749 C10.792,1.777 10.973,1.804 11.145,1.872 C11.138,1.907 11.132,1.881 11.1,1.903 C11.228,1.933 11.367,1.897 11.493,1.927 C11.515,1.955 11.471,1.967 11.483,1.99 C11.531,1.956 11.561,2.023 11.602,2.01 C11.634,2 11.611,1.971 11.654,1.961 C11.84,1.982 12.113,1.998 12.232,2.048 C12.18,2.066 12.138,2.042 12.085,2.062 C12.166,2.108 12.254,2.105 12.337,2.153 C12.313,2.167 12.289,2.184 12.266,2.199 C12.093,2.032 11.871,2.167 11.687,2.057 C11.702,2.089 11.633,2.108 11.618,2.105 C11.608,2.062 11.589,2.03 11.546,2.05 C11.549,2.082 11.608,2.066 11.579,2.097 C11.475,2.123 11.393,2.025 11.286,2.073 C11.318,2.112 11.277,2.165 11.339,2.177 C11.393,2.168 11.374,2.153 11.381,2.112 C11.399,2.166 11.475,2.146 11.458,2.198 C11.25,2.183 11.049,2.12 10.835,2.14 C10.993,2.216 11.16,2.238 11.318,2.295 C11.36,2.242 11.374,2.213 11.439,2.265 C11.447,2.292 11.396,2.309 11.437,2.338 C11.475,2.383 11.525,2.366 11.571,2.385 C11.585,2.428 11.591,2.505 11.63,2.519 C11.684,2.507 11.596,2.466 11.654,2.452 C11.893,2.559 12.181,2.634 12.381,2.808 C12.475,2.782 12.562,2.836 12.613,2.944 C12.716,2.989 12.818,3.06 12.921,3.116 C12.923,3.148 12.946,3.186 12.955,3.214 C13.091,3.188 13.254,3.346 13.34,3.423 C13.22,3.364 13.013,3.505 12.947,3.327 C12.899,3.366 12.863,3.339 12.828,3.304 L12.885,3.265 C12.855,3.217 12.813,3.264 12.78,3.212 C12.837,3.219 12.757,3.178 12.776,3.13 C12.73,3.114 12.672,3.178 12.63,3.144 C12.541,3.084 12.614,3.06 12.574,2.989 C12.535,2.97 12.493,2.986 12.444,3.025 C12.373,2.978 12.296,2.927 12.229,2.859 C12.267,2.811 12.314,2.884 12.323,2.829 C12.247,2.802 12.164,2.822 12.081,2.821 C12.117,2.892 12.174,2.836 12.214,2.888 C12.15,2.953 12.309,2.93 12.278,2.986 C12.104,2.989 12.047,2.914 11.891,2.797 C11.69,2.847 11.602,2.602 11.419,2.56 C11.405,2.53 11.469,2.515 11.434,2.48 C11.405,2.458 11.337,2.419 11.3,2.415 C11.282,2.466 11.412,2.466 11.393,2.526 C11.288,2.55 11.19,2.515 11.093,2.488 C11.06,2.421 11.014,2.428 10.981,2.376 C10.723,2.359 10.483,2.233 10.224,2.249 C10.497,2.383 10.869,2.469 11.176,2.607 C11.186,2.623 11.174,2.633 11.19,2.649 C11.333,2.653 11.479,2.709 11.573,2.856 C11.772,2.831 11.923,3.095 12.108,3.137 C12.125,3.161 12.075,3.17 12.099,3.196 C12.155,3.214 12.212,3.214 12.257,3.276 C12.257,3.32 12.252,3.302 12.208,3.329 C12.232,3.392 12.268,3.344 12.296,3.356 C12.274,3.37 12.278,3.387 12.298,3.407 C12.383,3.407 12.411,3.425 12.486,3.505 C12.509,3.487 12.532,3.48 12.548,3.498 C12.708,3.612 12.874,3.672 13.031,3.795 C13.111,3.764 13.22,3.837 13.247,3.908 C13.352,3.898 13.472,3.984 13.528,4.064 C13.707,4.117 13.873,4.236 14.045,4.339 C14.032,4.347 14.02,4.356 14.009,4.364 C14.094,4.415 14.188,4.392 14.264,4.505 C14.284,4.491 14.306,4.485 14.324,4.496 C14.61,4.615 14.884,4.819 15.166,4.963 C15.236,5.088 15.387,5.127 15.499,5.173 C15.501,5.18 15.503,5.188 15.504,5.197 C15.539,5.213 15.572,5.233 15.603,5.256 C15.624,5.256 15.645,5.257 15.668,5.266 C15.666,5.292 15.672,5.311 15.68,5.327 C15.69,5.337 15.7,5.349 15.709,5.361 C15.754,5.395 15.824,5.406 15.87,5.409 C15.868,5.429 15.828,5.443 15.86,5.469 C15.935,5.496 16.087,5.468 16.085,5.593 C16.158,5.557 16.248,5.626 16.276,5.699 C16.355,5.734 16.425,5.783 16.479,5.843 C16.493,5.849 16.509,5.854 16.523,5.86 C16.521,5.865 16.517,5.869 16.513,5.876 C17.336,6.303 18.01,6.875 18.79,7.339 C18.953,7.475 19.1,7.623 19.293,7.726 C19.561,8.024 19.873,8.281 20.122,8.6 C20.145,8.613 20.178,8.618 20.202,8.634 C20.192,8.672 20.22,8.672 20.227,8.694 C20.455,8.845 20.581,9.099 20.809,9.254 L20.85,9.393 Z" id="Fill-1" fill="#448C37" mask="url(#mask-2)"></path>
                <path d="M32.691,60.488 C32.719,60.689 32.802,60.864 32.739,61.116 C32.816,61.178 32.759,61.283 32.855,61.339 C32.842,61.371 32.858,61.391 32.821,61.404 C32.908,61.493 32.938,61.6 32.914,61.728 C33.146,61.975 33.094,62.316 33.29,62.574 C33.283,62.588 33.279,62.6 33.271,62.613 C33.405,62.752 33.31,62.967 33.517,63.082 C33.562,63.264 33.69,63.367 33.782,63.547 C33.73,63.633 33.817,63.672 33.834,63.736 C33.814,63.755 33.788,63.752 33.774,63.786 C33.773,63.834 33.821,63.868 33.818,63.922 C33.706,63.95 33.697,63.776 33.624,63.726 C33.606,63.699 33.559,63.723 33.55,63.7 C33.554,63.789 33.746,63.902 33.712,64.031 C33.616,63.979 33.561,63.912 33.551,63.836 C33.503,63.805 33.473,63.828 33.424,63.801 C33.396,63.701 33.47,63.6 33.472,63.518 C33.35,63.498 33.392,63.346 33.302,63.282 C33.251,63.289 33.318,63.352 33.271,63.396 C33.147,63.426 33.159,63.266 33.153,63.189 C33.167,63.134 33.203,63.158 33.224,63.145 C33.242,62.997 33.041,62.922 33.074,62.773 C33.001,62.746 33.032,62.821 32.983,62.856 C32.931,62.832 32.956,62.732 33.017,62.759 C33.018,62.708 32.968,62.654 33.024,62.615 C32.92,62.465 32.925,62.283 32.878,62.115 C32.832,62.078 32.818,62.131 32.773,62.096 C32.782,62.035 32.825,62.08 32.852,62.07 C32.903,61.949 32.775,61.887 32.849,61.76 C32.854,61.721 32.795,61.768 32.766,61.734 C32.744,61.654 32.755,61.6 32.792,61.52 C32.705,61.422 32.752,61.283 32.693,61.176 C32.684,61.172 32.675,61.182 32.661,61.173 C32.64,61.162 32.653,61.224 32.623,61.25 C32.666,61.365 32.743,61.478 32.61,61.621 C32.521,61.426 32.659,61.225 32.537,61.043 C32.571,60.982 32.631,60.984 32.683,60.977 C32.763,60.779 32.506,60.693 32.608,60.496 C32.636,60.495 32.668,60.502 32.691,60.488 Z M34.904,43.455 C34.717,43.377 34.524,43.358 34.34,43.176 C34.248,43.21 34.186,43.107 34.089,43.162 C34.069,43.134 34.042,43.138 34.051,43.1 C33.93,43.127 33.823,43.1 33.725,43.014 C33.394,43.086 33.128,42.867 32.806,42.902 C32.797,42.891 32.789,42.881 32.782,42.867 C32.594,42.91 32.458,42.721 32.253,42.838 C32.075,42.784 31.92,42.842 31.717,42.828 C31.671,42.74 31.593,42.795 31.529,42.776 C31.522,42.75 31.539,42.728 31.517,42.699 C31.476,42.674 31.422,42.697 31.377,42.668 C31.41,42.557 31.564,42.638 31.645,42.602 C31.677,42.6 31.681,42.547 31.705,42.551 C31.627,42.51 31.431,42.615 31.338,42.521 C31.431,42.465 31.517,42.451 31.588,42.482 C31.639,42.457 31.634,42.419 31.683,42.391 C31.783,42.419 31.831,42.533 31.902,42.578 C31.981,42.482 32.09,42.596 32.191,42.551 C32.211,42.504 32.123,42.529 32.109,42.467 C32.146,42.345 32.278,42.437 32.348,42.471 C32.388,42.512 32.348,42.529 32.35,42.555 C32.466,42.646 32.634,42.512 32.745,42.615 C32.806,42.567 32.725,42.555 32.72,42.495 C32.768,42.463 32.84,42.535 32.787,42.574 C32.83,42.602 32.902,42.586 32.906,42.654 C33.089,42.642 33.242,42.738 33.41,42.784 C33.466,42.764 33.427,42.725 33.48,42.704 C33.528,42.742 33.468,42.756 33.462,42.784 C33.54,42.891 33.659,42.812 33.731,42.941 C33.761,42.965 33.751,42.891 33.795,42.883 C33.876,42.904 33.917,42.943 33.966,43.016 C34.095,42.989 34.19,43.102 34.312,43.105 C34.32,43.1 34.317,43.088 34.331,43.08 C34.352,43.067 34.291,43.047 34.284,43.008 C34.163,42.984 34.026,42.993 33.972,42.807 C34.186,42.83 34.288,43.051 34.506,43.039 C34.541,43.1 34.508,43.15 34.489,43.199 C34.618,43.369 34.822,43.191 34.94,43.381 C34.926,43.404 34.904,43.429 34.904,43.455 Z M30.557,44.525 C30.651,44.473 30.666,44.489 30.761,44.415 C31.001,44.432 31.251,44.412 31.476,44.497 C31.163,44.545 30.852,44.561 30.557,44.525 Z M33.201,60.682 C33.181,60.887 33.244,61.051 33.305,61.276 C33.271,61.359 33.31,61.398 33.335,61.493 C33.19,61.384 33.203,61.15 33.095,60.98 C33.128,60.936 33.126,61.018 33.155,60.996 C33.122,60.907 32.976,60.719 32.911,60.617 C32.948,60.453 32.859,60.261 32.904,60.099 C32.843,60.031 32.896,59.989 32.833,59.926 C32.842,59.885 32.878,59.855 32.909,59.826 C33,60.111 33.037,60.437 33.201,60.682 Z M29.755,43.266 C29.549,43.25 29.387,43.316 29.162,43.381 C29.079,43.349 29.04,43.389 28.946,43.415 C29.053,43.268 29.286,43.276 29.454,43.166 C29.501,43.197 29.418,43.197 29.44,43.227 C29.528,43.191 29.714,43.041 29.813,42.975 C29.979,43.01 30.17,42.917 30.333,42.959 C30.399,42.896 30.442,42.949 30.504,42.885 C30.544,42.893 30.576,42.929 30.604,42.959 C30.321,43.055 29.996,43.098 29.755,43.266 Z M23.127,39.463 C23.05,39.332 23.052,39.227 23.015,39.125 C23.073,39.125 23.123,39.148 23.184,39.121 C23.191,39.166 23.161,39.206 23.146,39.248 C23.173,39.303 23.245,39.361 23.164,39.389 C23.176,39.421 23.199,39.4 23.216,39.391 C23.221,39.414 23.218,39.437 23.223,39.455 C23.186,39.478 23.161,39.459 23.127,39.463 Z M22.465,35.621 C22.443,35.561 22.431,35.508 22.427,35.453 C22.459,35.465 22.525,35.447 22.534,35.402 C22.525,35.4 22.512,35.393 22.499,35.375 C22.459,35.389 22.479,35.412 22.447,35.425 C22.39,35.34 22.349,35.176 22.401,35.08 C22.389,35.168 22.469,35.18 22.534,35.186 C22.598,35.164 22.581,35.125 22.616,35.1 C22.65,35.119 22.615,35.189 22.667,35.15 C22.632,35.238 22.567,35.318 22.576,35.414 C22.583,35.423 22.595,35.419 22.602,35.431 C22.636,35.461 22.636,35.4 22.665,35.393 C22.667,35.443 22.71,35.501 22.71,35.549 C22.62,35.51 22.493,35.561 22.465,35.621 Z M22.253,42.172 C22.139,41.991 22.066,41.63 21.926,41.508 C21.955,41.373 21.848,41.204 21.811,41.051 C21.854,40.978 21.835,40.9 21.758,40.828 C21.729,40.795 21.77,40.776 21.777,40.748 C21.727,40.723 21.699,40.666 21.671,40.607 C21.654,40.565 21.658,40.549 21.629,40.482 C21.582,40.383 21.566,40.234 21.582,40.189 C21.488,40.047 21.444,39.885 21.445,39.727 C21.368,39.549 21.299,39.379 21.322,39.227 C21.174,39.067 21.255,38.84 21.161,38.691 C21.18,38.586 21.111,38.463 21.105,38.356 C21.114,38.33 21.143,38.314 21.149,38.291 C21.133,38.252 21.077,38.204 21.114,38.176 C21.273,38.212 21.169,38.443 21.292,38.576 C21.209,38.699 21.317,38.799 21.354,38.919 C21.376,39.001 21.361,39.045 21.408,39.172 C21.49,39.389 21.474,39.672 21.612,39.883 C21.574,39.945 21.585,40.039 21.645,40.098 C21.685,40.404 21.801,40.71 21.857,40.987 C21.892,41.039 21.94,41.02 21.975,41.067 C21.908,41.189 22.015,41.404 22.091,41.525 C22.044,41.719 22.29,41.961 22.253,42.172 Z M21.865,32.905 C21.929,32.869 21.955,32.961 22.003,32.989 C21.953,32.997 21.893,33.053 21.843,33.059 C21.858,33.091 21.896,33.067 21.921,33.073 C21.943,33.114 21.975,33.154 21.969,33.182 C21.904,33.199 21.903,33.21 21.843,33.227 C21.761,33.053 21.825,33.011 21.865,32.905 Z M20.098,32.7 C20.102,32.684 20.104,32.667 20.106,32.654 C19.935,32.353 19.866,32.007 19.729,31.726 C19.869,32.007 19.935,32.354 20.106,32.654 C20.104,32.667 20.102,32.684 20.098,32.7 Z M18.096,33.762 C18.079,33.678 17.876,32.981 17.857,32.914 C17.836,32.854 17.984,32.767 17.993,32.721 C17.895,32.541 17.813,32.351 17.848,32.145 C17.828,32.093 17.794,32.074 17.758,32.05 C17.794,31.954 17.726,31.858 17.748,31.762 C17.705,31.719 17.685,31.621 17.633,31.59 C17.545,30.816 17.329,30.292 17.144,29.439 C17.038,29.292 16.992,29.026 16.969,28.81 C16.848,28.456 16.62,27.975 16.565,27.633 C16.456,27.565 16.425,27.417 16.406,27.317 C16.383,27.172 16.284,27.097 16.227,26.963 C16.174,26.843 16.196,26.673 16.055,26.606 C15.942,26.218 15.702,25.911 15.597,25.552 C15.419,25.381 15.38,25.162 15.248,24.947 C15.432,24.917 15.374,25.089 15.477,25.256 C15.513,25.311 15.584,25.324 15.598,25.446 C15.624,25.491 15.666,25.517 15.703,25.549 C15.688,25.62 15.747,25.681 15.786,25.721 C15.796,25.761 15.82,25.809 15.807,25.837 C16.088,26.178 16.218,26.751 16.46,27.09 C16.473,27.195 16.537,27.373 16.61,27.434 C16.645,27.801 16.874,28.086 16.914,28.436 C17.137,28.814 17.215,29.313 17.359,29.692 C17.37,30.038 17.547,30.408 17.667,30.76 C17.638,30.91 17.711,31.038 17.753,31.19 C17.795,31.344 17.757,31.542 17.886,31.681 C17.873,31.717 17.841,31.746 17.848,31.797 C17.947,31.878 17.892,32.006 17.921,32.139 C17.951,32.278 18.074,32.423 18.004,32.562 C18.138,32.703 18.071,32.965 18.185,33.145 C18.263,34.271 18.038,33.853 18.096,33.762 Z M15.194,24.871 C15.209,24.783 15.114,24.759 15.07,24.713 C15.002,24.551 14.926,24.397 14.824,24.302 C14.862,24.187 14.724,24.142 14.702,24.053 C14.702,24.053 14.726,23.984 14.729,23.985 C14.701,23.932 14.602,23.873 14.564,23.793 C14.513,23.693 14.548,23.575 14.442,23.541 C14.43,23.506 14.413,23.464 14.427,23.441 C14.336,23.367 14.231,23.202 14.25,23.116 C13.899,22.688 13.651,22.2 13.315,21.63 C13.29,21.597 13.244,21.6 13.211,21.587 C13.191,21.369 13.014,21.378 12.987,21.246 C13.075,21.221 13.159,21.393 13.196,21.485 C13.386,21.667 13.564,21.864 13.718,22.113 C13.765,22.161 13.788,22.13 13.837,22.152 C13.856,22.195 13.865,22.235 13.839,22.258 C13.84,22.299 13.902,22.224 13.902,22.27 C13.918,22.303 13.898,22.319 13.86,22.327 C13.919,22.427 14.058,22.569 14.137,22.744 C14.151,22.772 14.193,22.776 14.195,22.784 C14.204,22.798 14.169,22.82 14.182,22.834 C14.238,22.911 14.414,22.976 14.35,23.085 C14.444,23.238 14.493,23.486 14.648,23.527 C14.67,23.595 14.708,23.614 14.66,23.659 C14.688,23.725 14.742,23.748 14.788,23.787 C14.905,24.172 15.111,24.447 15.268,24.866 C15.238,24.878 15.23,24.849 15.194,24.871 Z M10.116,18.532 C10.132,18.431 10.272,18.515 10.354,18.47 C10.425,18.548 10.584,18.549 10.513,18.653 C10.356,18.609 10.265,18.588 10.116,18.532 Z M14.672,22.275 C14.687,22.233 14.651,22.162 14.708,22.151 C14.704,22.09 14.639,22.117 14.623,22.079 C14.633,21.854 14.401,21.744 14.355,21.566 C14.266,21.549 14.168,21.423 14.229,21.355 C14.167,21.291 14.12,21.209 14.096,21.0989682 C14.123,21.098 14.135,21.121 14.172,21.114 C14.309,21.314 14.476,21.615 14.625,21.855 C14.63,21.895 14.684,21.934 14.631,21.959 C14.665,21.989 14.715,21.999 14.749,22.041 C14.76,22.165 14.813,22.23 14.89,22.265 C15.145,22.833 15.464,23.145 15.707,23.722 C15.722,23.755 15.754,23.766 15.779,23.785 C15.751,23.902 15.89,23.997 15.928,24.126 C15.935,24.15 15.917,24.173 15.925,24.198 C15.98,24.328 16.156,24.426 16.113,24.592 C16.099,24.594 16.084,24.595 16.07,24.6 C15.984,24.473 15.961,24.351 15.896,24.19 C15.857,24.097 15.792,24.077 15.729,24 C15.686,23.942 15.683,23.866 15.649,23.807 C15.541,23.603 15.382,23.4 15.322,23.202 C15.034,22.926 14.958,22.489 14.672,22.275 Z M17.375,27.612 C17.346,27.456 17.256,27.357 17.236,27.196 C17.331,27.288 17.344,27.46 17.419,27.538 C17.44,27.569 17.383,27.592 17.422,27.597 C17.419,27.612 17.394,27.608 17.375,27.612 Z M17.097,26.272 C17.108,26.223 17.048,26.252 17.04,26.231 C17.096,26.18 16.929,26.122 17.02,26.085 C17.011,26.053 16.997,26.031 16.947,26.042 C16.942,25.98 16.905,25.956 16.901,25.9 C16.942,25.888 16.948,25.839 16.986,25.825 C17.085,25.937 17.133,26.124 17.141,26.256 C17.186,26.302 17.255,26.395 17.204,26.458 C17.135,26.447 17.011,26.295 17.097,26.272 Z M18.615,30.245 C18.492,30.145 18.45,29.904 18.46,29.756 C18.314,29.633 18.352,29.317 18.199,29.198 C18.247,29.048 18.059,28.887 18.101,28.737 C18.066,28.691 17.964,28.646 18.009,28.567 C17.954,28.574 17.948,28.58 17.908,28.554 C17.936,28.449 17.885,28.417 17.858,28.324 C17.858,28.273 17.898,28.266 17.928,28.248 C17.912,28.211 17.817,28.256 17.798,28.225 C17.83,28.106 17.802,28.091 17.764,27.994 C17.824,27.955 17.874,27.996 17.881,28.063 C17.868,28.062 17.851,28.063 17.836,28.064 C17.84,28.129 17.93,28.107 17.955,28.147 C17.99,28.323 18.125,28.456 18.112,28.635 C18.165,28.674 18.2,28.741 18.247,28.791 C18.26,28.838 18.198,28.812 18.206,28.851 C18.257,28.968 18.393,29.174 18.301,29.298 C18.317,29.335 18.343,29.275 18.362,29.311 C18.408,29.529 18.547,29.726 18.534,29.97 C18.578,30.031 18.612,30.1 18.671,30.143 C18.659,30.183 18.624,30.199 18.615,30.245 Z M12.452,19.988 C12.3,19.896 12.149,19.731 12.037,19.598 C12.176,19.691 12.394,19.825 12.452,19.988 Z M15.03,23.138 C15.032,23.18 15.004,23.209 14.949,23.222 C14.895,23.129 14.847,23.111 14.822,23.005 C14.882,23.061 14.967,23.081 15.03,23.138 Z M15.123,23.939 C14.954,23.827 14.856,23.583 14.741,23.377 C14.755,23.373 14.763,23.365 14.762,23.354 C15.003,23.416 15.051,23.787 15.123,23.939 Z M13.542,21.302 C13.521,21.314 13.501,21.328 13.482,21.342 C13.613,21.487 13.688,21.603 13.842,21.786 C13.67,21.682 13.531,21.427 13.37,21.272 C13.44,21.232 13.488,21.278 13.542,21.302 Z M15.792,25.145 C15.802,25.179 15.787,25.202 15.754,25.218 C15.852,25.358 15.944,25.491 15.994,25.658 C16.077,25.697 16.148,25.849 16.169,25.936 C16.189,25.999 16.137,25.923 16.112,25.941 C16.086,25.81 15.968,25.762 15.978,25.649 C15.922,25.595 15.879,25.521 15.81,25.503 C15.828,25.36 15.723,25.243 15.674,25.103 C15.719,25.103 15.745,25.143 15.792,25.145 Z M5.755,14.488 C5.763,14.359 5.639,14.35 5.584,14.216 C5.661,14.266 5.817,14.397 5.817,14.483 C5.954,14.54 6.108,14.683 6.243,14.865 C6.053,14.848 5.939,14.516 5.755,14.488 Z M5.849,14.942 C5.823,14.937 5.795,14.957 5.771,14.954 C5.749,14.906 5.73,14.887 5.728,14.829 C5.686,14.818 5.639,14.811 5.624,14.773 C5.618,14.757 5.635,14.717 5.639,14.713 C5.594,14.667 5.534,14.686 5.478,14.624 C5.491,14.615 5.478,14.603 5.476,14.592 C5.648,14.551 5.735,14.816 5.861,14.882 C5.857,14.902 5.817,14.912 5.849,14.942 Z M4.793,13.111 C4.944,13.267 5.014,13.547 5.218,13.765 C5.012,13.654 4.938,13.393 4.793,13.111 Z M3.977,12.321 C3.875,12.244 3.874,12.02 3.845,11.89 C3.884,11.856 3.906,11.905 3.938,11.902 C3.937,12.056 3.989,12.163 3.977,12.321 Z M2.036,7.561 C2.066,7.389 2.187,7.244 2.291,7.093 C2.327,6.916 2.45,6.759 2.586,6.606 C2.617,6.656 2.657,6.629 2.659,6.696 C2.374,6.922 2.274,7.323 2.036,7.561 Z M3.974,6.78 C3.982,6.825 4.016,6.872 4.026,6.919 C3.904,7 3.675,7.039 3.78,7.208 C3.643,7.251 3.581,7.365 3.52,7.421 C3.526,7.182 3.8,6.912 3.974,6.78 Z M5.77,6.872 C5.77,6.954 5.85,6.893 5.894,6.933 C5.874,6.945 5.852,6.957 5.832,6.971 C5.771,6.883 5.612,7.014 5.598,6.894 C5.646,6.918 5.707,6.903 5.77,6.872 Z M38.872,46.953 C38.926,47.044 39.093,47.25 38.913,47.32 C38.87,47.227 38.823,47.176 38.768,47.088 C38.814,47.048 38.813,46.959 38.872,46.953 Z M19.766,26.085 C19.724,26.085 19.36,25.176 19.331,25.122 C19.346,24.989 19.018,24.302 18.832,23.737 C18.081,21.868 17.773,20.742 14.876,17.6 C14.637,17.341 14.051,16.915 14.016,16.863 C13.84,16.607 13.202,16.34 13.055,16.189 C12.822,15.951 12.76,15.963 12.299,15.79 C12.181,15.725 12.056,15.663 11.922,15.605 C11.816,15.56 11.633,15.59 11.517,15.551 C11.172,15.468 10.983,15.423 10.756,15.396 C10.319,15.344 10.008,15.358 9.473,15.298 C9.316,15.29 9.071,15.229 8.766,15.223 C8.482,15.217 8.146,15.195 7.783,15.126 C7.288,14.985 6.998,14.88 6.768,14.612 C6.551,14.44 6.322,14.227 6.104,13.983 C5.811,13.656 5.534,13.272 5.326,12.857 C5.162,12.53 5.04,12.183 4.984,11.828 C4.929,11.706 4.789,11.292 4.785,11.208 C4.77,11.004 4.772,10.75 4.826,10.543 C4.855,10.428 4.827,10.196 4.942,10.179 C4.956,9.873 5.233,9.68 5.278,9.385 C5.453,9.178 6.456,8.141 6.544,8.062 C6.524,8.065 6.51,8.061 6.496,8.039 C6.548,7.937 6.656,7.866 6.776,7.832 C6.755,7.804 6.737,7.772 6.763,7.754 C6.819,7.706 6.914,7.716 6.896,7.639 C6.723,7.734 6.448,7.832 6.363,7.988 C6.278,7.966 6.229,8.058 6.143,8.072 C6.155,8.155 5.988,8.22 5.927,8.191 C6.008,8.001 6.267,7.889 6.372,7.725 C6.307,7.725 6.241,7.819 6.139,7.82 C6.128,7.903 6.058,7.943 5.974,7.94 C5.94,7.963 5.966,8.001 5.944,8.026 C5.914,8.004 5.875,8.043 5.85,8.016 C5.881,7.986 5.867,7.942 5.867,7.904 C5.817,7.919 5.83,7.949 5.789,7.97 C5.77,7.927 5.731,7.937 5.743,7.897 C5.783,7.898 5.832,7.868 5.875,7.866 C5.899,7.884 5.865,7.926 5.912,7.893 C6.036,7.892 6.088,7.74 6.185,7.671 C6.242,7.626 6.388,7.626 6.377,7.519 C6.246,7.488 6.152,7.654 6.026,7.666 C6.028,7.634 6.115,7.617 6.088,7.578 C5.889,7.574 5.875,7.779 5.665,7.774 C5.598,7.868 5.424,8.042 5.299,8.035 C5.305,7.983 5.367,7.945 5.345,7.888 C5.375,7.898 5.398,7.919 5.436,7.898 C5.514,7.805 5.578,7.681 5.694,7.654 C5.615,7.589 5.586,7.671 5.514,7.696 C5.525,7.716 5.547,7.738 5.534,7.754 C5.356,7.75 5.307,7.945 5.142,7.945 C5.153,7.898 5.206,7.91 5.241,7.884 C5.392,7.654 5.725,7.423 5.959,7.231 C6.058,7.15 6.127,7.136 6.086,7.1 C6.125,7.115 6.201,7.079 6.207,7.061 C6.189,7.074 6.143,7.037 6.166,7.016 C6.225,6.969 6.306,6.994 6.332,6.949 C6.227,6.918 6.183,6.952 6.034,7.049 C6.026,7.038 6.018,7.024 6.012,7.012 C5.974,7.036 5.936,7.059 5.899,7.081 C5.939,7.213 5.727,7.232 5.646,7.22 C5.604,7.311 5.487,7.327 5.427,7.36 C5.655,7.133 6.048,6.882 6.412,6.641 C6.394,6.601 6.355,6.637 6.341,6.584 C6.42,6.563 6.323,6.527 6.348,6.511 C6.374,6.496 6.396,6.482 6.421,6.469 C6.402,6.426 6.352,6.442 6.363,6.4 C6.347,6.469 6.221,6.507 6.178,6.569 C6.143,6.557 6.171,6.55 6.146,6.519 C6.106,6.542 6.075,6.523 6.034,6.555 C6.043,6.603 6.076,6.541 6.088,6.591 C6.003,6.626 5.908,6.61 5.874,6.57 C5.841,6.624 5.808,6.61 5.817,6.673 C5.718,6.617 5.62,6.721 5.473,6.752 C5.47,6.799 5.487,6.858 5.467,6.909 C5.352,6.852 5.243,7.034 5.139,6.957 C5.114,7.005 5.183,7.016 5.151,7.055 C5.103,7.024 5.084,7.105 5.038,7.039 C5.255,6.782 5.562,6.61 5.859,6.391 C5.815,6.419 5.787,6.372 5.755,6.354 C5.718,6.384 5.699,6.417 5.679,6.451 C5.478,6.437 5.307,6.738 5.106,6.739 C5.125,6.648 5.273,6.6 5.363,6.546 C5.321,6.5 5.255,6.55 5.202,6.562 C5.106,6.709 4.741,6.886 4.582,7.1 C4.332,7.227 4.117,7.501 3.968,7.756 C3.94,7.786 3.928,7.749 3.903,7.762 C3.927,7.998 3.646,8.098 3.617,8.314 C3.343,8.621 3.343,9.043 3.081,9.315 C3.092,9.409 3.125,9.507 2.996,9.571 C2.912,9.825 2.94,10.101 2.799,10.343 C2.827,10.375 2.813,10.393 2.833,10.425 C2.709,10.73 2.881,11.109 2.789,11.424 C2.841,11.506 2.86,11.579 2.781,11.633 C2.896,11.839 2.896,12.104 2.925,12.328 C2.827,12.095 2.711,11.872 2.799,11.689 C2.779,11.658 2.757,11.664 2.741,11.622 C2.752,11.48 2.726,11.26 2.691,11.076 C2.749,10.941 2.691,10.782 2.669,10.628 C2.7,10.582 2.695,10.529 2.713,10.481 C2.669,10.331 2.721,10.109 2.794,9.954 C2.796,9.693 2.881,9.456 3.046,9.234 C3.018,9.199 3.051,9.178 3.024,9.146 C3.201,8.627 3.478,8.171 3.8,7.709 C3.857,7.684 3.852,7.647 3.903,7.625 C3.896,7.503 4.022,7.372 4.134,7.311 C4.133,7.216 4.219,7.202 4.275,7.156 C4.35,7.089 4.402,6.977 4.466,6.917 C4.606,6.784 4.806,6.701 4.922,6.548 C4.946,6.556 4.979,6.54 5.006,6.547 C5.008,6.52 4.982,6.483 5.024,6.469 C5.271,6.329 5.484,6.162 5.713,5.987 C5.547,5.854 5.363,6.136 5.193,6.108 C5.191,6.131 5.211,6.163 5.167,6.176 C5.142,6.177 5.126,6.164 5.108,6.141 C5.054,6.189 5.04,6.194 4.981,6.206 C5.016,6.275 4.916,6.263 4.867,6.327 C4.849,6.319 4.832,6.3 4.817,6.272 C4.809,6.419 4.544,6.53 4.41,6.578 C4.446,6.613 4.432,6.637 4.412,6.661 C4.277,6.567 4.056,6.885 4.03,6.676 C4.052,6.663 4.06,6.711 4.089,6.692 C4.074,6.646 4.086,6.634 4.134,6.629 C4.112,6.6 4.093,6.569 4.121,6.552 C4.434,6.364 4.671,6.051 5.09,5.862 C5.11,5.802 5.173,5.753 5.243,5.751 C5.241,5.683 5.353,5.546 5.436,5.599 C5.428,5.578 5.402,5.551 5.418,5.54 C5.709,5.405 5.899,5.235 6.261,5.084 C6.223,5.047 6.248,5.023 6.219,4.992 C6.137,5.04 6.093,4.969 6.056,5.057 C6.088,5.111 6.147,5.045 6.189,5.079 C6.125,5.126 6.046,5.111 5.974,5.092 C6.002,5.118 5.998,5.138 5.961,5.152 C5.95,5.136 5.966,5.123 5.95,5.107 C5.902,5.171 5.861,5.139 5.804,5.147 C5.695,5.258 5.502,5.306 5.332,5.374 C5.318,5.347 5.366,5.336 5.345,5.312 C5.286,5.321 5.226,5.336 5.173,5.335 C5.147,5.296 5.153,5.278 5.155,5.228 C4.956,5.203 4.849,5.355 4.659,5.416 C4.697,5.455 4.681,5.484 4.646,5.508 C4.595,5.539 4.564,5.477 4.517,5.487 C4.467,5.54 4.432,5.536 4.396,5.598 C4.345,5.619 4.306,5.609 4.275,5.567 C4.237,5.433 4.392,5.455 4.446,5.431 C4.486,5.411 4.625,5.201 4.745,5.227 C4.911,5.085 5.094,4.947 5.306,4.894 C5.295,4.873 5.272,4.852 5.286,4.836 C5.405,4.835 5.487,4.738 5.601,4.71 C5.454,4.638 5.306,4.823 5.161,4.797 C5.13,4.767 5.222,4.771 5.195,4.741 C5.139,4.745 5.087,4.804 5.07,4.816 C5.094,4.807 5.111,4.82 5.125,4.852 C5.114,4.859 5.116,4.869 5.108,4.88 C4.995,4.91 4.843,4.982 4.759,5.03 C4.703,5.016 4.765,4.985 4.765,4.958 C4.542,5.042 4.39,5.121 4.179,5.22 C4.227,5.274 4.146,5.302 4.099,5.336 C4.082,5.304 4.06,5.288 4.031,5.312 C4.007,5.333 4.074,5.377 4.033,5.396 C3.687,5.4 3.53,5.773 3.269,5.923 C3.247,6.037 3.158,6.153 3.004,6.208 C2.992,6.294 2.827,6.347 2.863,6.448 C2.767,6.507 2.704,6.634 2.603,6.577 C2.657,6.369 2.92,6.259 2.996,6.059 C3.277,5.842 3.375,5.592 3.683,5.412 C3.69,5.311 3.812,5.192 3.916,5.181 C4.024,5.057 4.146,4.926 4.301,4.924 C4.276,4.798 4.536,4.853 4.478,4.743 C4.361,4.745 4.187,4.907 4.074,4.943 C4.058,4.807 4.246,4.834 4.202,4.711 C4.037,4.868 3.757,4.894 3.641,5.095 C3.524,5.063 3.503,5.281 3.353,5.292 C3.353,5.185 3.454,5.118 3.55,5.084 C3.693,4.894 4.036,4.628 4.315,4.538 C4.339,4.473 4.41,4.474 4.438,4.43 C4.374,4.44 4.281,4.452 4.237,4.52 C3.986,4.519 3.595,4.828 3.448,4.977 C3.466,4.97 3.48,4.974 3.494,4.997 C3.427,5.042 3.363,5.083 3.307,5.081 C2.96,5.412 2.667,5.756 2.317,6.038 C2.193,6.336 1.863,6.641 1.723,6.971 C1.657,6.962 1.672,7.037 1.607,7.061 C1.64,7.149 1.551,7.238 1.464,7.269 C1.406,7.446 1.225,7.599 1.189,7.783 C1.155,7.796 1.141,7.729 1.105,7.763 C1.072,7.823 1.15,7.854 1.163,7.934 C1.053,8.021 1.058,8.132 0.988,8.229 C0.956,8.268 0.952,8.193 0.923,8.235 C0.892,8.276 0.948,8.291 0.946,8.325 C0.803,8.417 0.829,8.633 0.725,8.77 C0.686,8.659 0.693,8.565 0.791,8.489 C0.789,8.454 0.759,8.41 0.774,8.38 C0.8,8.38 0.813,8.373 0.823,8.35 C0.825,8.327 0.806,8.293 0.808,8.272 C0.982,7.91 1.138,7.542 1.266,7.171 C1.442,6.964 1.559,6.656 1.795,6.43 C1.817,6.372 1.787,6.304 1.837,6.252 C1.884,6.239 1.865,6.233 1.909,6.207 C1.912,6.172 1.906,6.134 1.934,6.108 C2.206,5.84 2.364,5.434 2.729,5.22 C2.755,5.147 2.829,5.047 2.93,5.024 C3.182,4.782 3.367,4.535 3.72,4.346 C4.163,3.86 4.813,3.656 5.39,3.357 C5.323,3.278 5.273,3.414 5.198,3.377 C5.211,3.396 5.202,3.412 5.175,3.422 C4.909,3.43 4.552,3.567 4.337,3.722 C4.106,3.729 3.942,3.982 3.764,3.978 C3.729,4.051 3.72,4.042 3.637,4.074 C3.472,4.246 3.291,4.399 3.043,4.545 C3.008,4.561 3.061,4.598 3.018,4.614 C2.375,4.985 2.042,5.56 1.578,6.054 C1.571,6.079 1.608,6.117 1.578,6.14 C1.412,6.329 1.289,6.527 1.101,6.711 C1.117,6.744 1.104,6.768 1.101,6.795 C0.947,6.912 0.897,7.056 0.879,7.205 C0.833,7.278 0.733,7.34 0.784,7.435 C0.645,7.621 0.542,7.751 0.472,7.973 C0.449,7.986 0.43,8.001 0.408,8.011 C0.396,8.048 0.431,8.059 0.454,8.084 C0.413,8.104 0.415,8.137 0.363,8.158 C0.336,8.306 0.352,8.463 0.242,8.593 C0.231,8.665 0.28,8.754 0.189,8.811 C0.201,9.005 0.191,9.196 0.091,9.367 C0.143,9.631 -0.008,9.847 0.044,10.114 C0.029,10.12 0.018,10.107 0,10.124 C0.062,10.283 -0.034,10.453 0.05,10.586 C-0.047,10.732 0.13,10.937 0.015,11.104 C0.143,11.36 0.096,11.666 0.125,11.94 C0.201,12.097 0.207,12.238 0.211,12.38 C0.329,12.638 0.349,12.978 0.465,13.279 C0.431,13.301 0.427,13.273 0.415,13.31 C0.442,13.352 0.483,13.327 0.506,13.372 C0.496,13.535 0.679,13.755 0.677,13.949 C0.761,14.041 0.89,14.259 0.899,14.389 C1.168,14.71 1.157,15.192 1.433,15.535 C1.437,15.553 1.432,15.571 1.411,15.582 C1.517,15.639 1.642,15.782 1.67,15.916 C1.687,15.938 1.717,15.898 1.732,15.931 C1.714,16.042 2.013,16.12 1.953,16.287 C2.043,16.328 2.07,16.349 2.123,16.453 C2.256,16.504 2.364,16.613 2.412,16.752 C2.685,16.971 2.904,17.372 3.19,17.57 C3.239,17.696 3.38,17.694 3.376,17.811 C3.569,17.906 3.737,18.171 3.882,18.246 C3.871,18.257 3.862,18.275 3.86,18.292 C4.019,18.267 4.119,18.481 4.251,18.563 C4.235,18.579 4.263,18.604 4.217,18.618 C4.374,18.664 4.438,18.789 4.561,18.865 C5.037,19.135 5.609,19.479 5.878,19.589 C6.031,19.64 6.292,19.794 6.448,19.843 C6.75,19.919 7.091,20.074 7.427,20.154 C7.765,20.233 8.096,20.237 8.375,20.301 C8.848,20.292 9.088,20.372 9.1,20.375 C9.717,20.406 10.23,20.627 10.436,20.857 C10.975,21.284 11.727,22.32 11.838,22.485 C13.369,25.066 14.534,28.921 15.82,34.142 C15.835,34.172 15.801,34.191 15.801,34.221 C15.88,34.227 15.819,34.351 15.896,34.4 C15.872,34.553 16.038,34.782 15.948,34.947 C16.052,35.008 16,35.127 16.081,35.24 C16.004,35.316 16.181,35.491 16.127,35.621 C16.221,35.773 16.187,35.896 16.24,36.043 C16.219,36.057 16.203,36.069 16.197,36.088 C16.286,36.246 16.326,36.516 16.376,36.728 C16.319,36.782 16.315,36.847 16.38,36.931 C16.366,36.943 16.371,36.963 16.339,36.971 C16.446,37.193 16.46,37.358 16.43,37.529 C16.45,37.559 16.474,37.551 16.486,37.596 C16.474,37.704 16.546,37.834 16.494,37.931 C16.53,37.999 16.551,38.065 16.504,38.115 C16.534,38.158 16.551,38.152 16.559,38.199 C16.538,38.214 16.517,38.227 16.496,38.238 C16.523,38.336 16.647,38.369 16.556,38.473 C16.641,38.551 16.673,38.693 16.623,38.771 C16.66,38.824 16.689,38.826 16.634,38.869 C16.653,38.9 16.677,38.893 16.691,38.936 C16.662,39.136 16.912,39.425 16.814,39.627 C16.854,39.697 16.894,39.77 16.852,39.822 C16.874,39.869 16.92,39.811 16.936,39.875 C16.952,39.908 16.904,39.923 16.895,39.949 C17.005,40.057 16.948,40.154 16.972,40.26 C17.051,40.389 17.048,40.504 17.117,40.629 L17.067,40.662 C17.133,40.693 17.085,40.728 17.085,40.77 C17.159,40.756 17.131,40.845 17.133,40.875 C17.213,40.863 17.157,40.98 17.173,41.023 C17.219,41.069 17.261,41.14 17.206,41.187 C17.317,41.423 17.394,41.74 17.397,41.957 C17.418,42.01 17.448,41.997 17.471,42.049 C17.426,42.182 17.544,42.295 17.602,42.425 C17.635,42.497 17.632,42.636 17.669,42.725 C17.707,42.805 17.741,42.849 17.7,42.908 C17.732,42.904 17.757,42.943 17.779,42.984 C17.76,43.008 17.762,43.033 17.721,43.051 C17.866,43.094 17.765,43.668 17.914,43.755 C17.862,43.816 17.958,43.863 17.995,43.909 C18.004,43.932 17.976,43.941 17.971,43.959 C18.19,44.318 18.313,44.921 18.538,45.225 C18.49,45.236 18.546,45.273 18.53,45.295 C18.585,45.297 18.669,45.434 18.646,45.478 C18.724,45.508 18.755,45.554 18.802,45.622 C18.8,45.648 18.767,45.67 18.763,45.696 C18.846,45.656 18.921,45.789 18.897,45.855 C19.111,45.978 19.159,46.309 19.357,46.401 C19.374,46.439 19.376,46.478 19.373,46.51 C19.558,46.69 19.743,46.855 19.894,47.074 C19.972,47.114 20.078,47.261 20.07,47.303 C20.287,47.377 20.436,47.725 20.651,47.797 C20.731,47.994 20.949,47.974 20.97,48.145 C21.127,48.223 21.382,48.312 21.443,48.494 C21.709,48.614 21.954,48.791 22.182,48.939 C22.205,48.968 22.175,48.981 22.207,49.008 C22.331,48.961 22.45,49.02 22.498,49.13 C22.683,49.15 22.959,49.168 23.121,49.28 C23.296,49.264 23.295,49.307 23.442,49.328 C23.63,49.357 23.608,49.375 23.635,49.377 C23.815,49.419 23.951,49.381 24.091,49.474 C24.213,49.432 24.348,49.603 24.43,49.623 C24.519,49.645 24.624,49.52 24.617,49.603 C24.811,49.562 24.968,49.664 25.146,49.685 C25.177,49.67 25.19,49.654 25.2,49.637 C25.367,49.674 25.552,49.635 25.709,49.711 C25.96,49.62 26.147,49.734 26.392,49.67 C26.528,49.762 26.714,49.619 26.836,49.754 C26.868,49.738 26.862,49.712 26.904,49.695 C27.291,49.656 27.627,49.611 28.014,49.43 C28.165,49.463 28.308,49.357 28.463,49.354 C28.604,49.206 28.817,49.326 28.95,49.204 C29.053,49.264 29.133,49.123 29.228,49.187 C29.295,49.121 29.395,49.123 29.47,49.136 C29.595,49.033 29.734,49.076 29.861,48.997 C29.884,49.018 29.906,49.012 29.924,49.041 C30.084,48.967 30.146,48.965 30.302,48.895 C30.318,48.937 30.483,48.84 30.496,48.884 C30.554,48.832 30.524,48.74 30.585,48.789 C30.773,48.723 31.026,48.636 31.202,48.766 C31.245,48.732 31.364,48.725 31.411,48.734 C31.44,48.768 31.777,48.768 31.893,48.863 C32.218,48.98 32.192,48.997 32.391,49.152 C32.425,49.174 32.694,49.428 32.715,49.451 C33.031,49.646 32.894,49.607 33.056,49.945 C33.176,50.08 33.248,50.297 33.252,50.463 C33.421,50.561 33.326,50.901 33.389,51.102 C33.342,51.114 33.37,51.141 33.355,51.156 C33.375,51.19 33.395,51.221 33.414,51.255 C33.364,51.453 33.509,51.699 33.396,51.881 C33.462,51.922 33.472,52.122 33.406,52.199 C33.519,52.449 33.394,52.728 33.44,52.996 C33.42,53.027 33.432,53.068 33.387,53.098 C33.433,53.176 33.404,53.236 33.331,53.285 C33.404,53.391 33.297,53.459 33.233,53.533 C33.172,53.692 33.081,53.99 32.896,54.118 C32.906,54.228 32.861,54.373 32.741,54.42 C32.761,54.459 32.759,54.496 32.738,54.525 C32.644,54.568 32.412,55.164 32.381,55.232 C32.401,55.251 32.125,55.754 32.125,55.754 C32.048,55.779 31.933,56.139 31.869,56.115 C31.887,56.151 31.885,56.333 31.867,56.363 C31.823,56.344 31.764,56.389 31.774,56.437 C31.79,56.414 31.843,56.428 31.813,56.447 C31.803,56.496 31.764,56.437 31.72,56.488 C31.682,56.614 31.61,56.734 31.58,56.865 C31.505,56.873 31.497,56.865 31.449,56.928 C31.464,56.961 31.489,56.941 31.5,56.98 C31.285,57.209 31.47,57.49 31.247,57.709 C31.278,57.783 31.389,57.844 31.296,57.887 C31.316,57.998 31.288,58.066 31.188,58.125 C31.222,58.403 30.995,58.62 31.02,58.894 C30.879,59.044 31.026,59.238 30.905,59.387 C30.916,59.529 30.882,59.66 30.793,59.781 C30.853,59.934 30.957,60.1 30.839,60.213 C30.887,60.395 30.858,60.561 30.869,60.732 C30.881,60.781 30.885,60.829 30.894,60.877 C30.937,61.568 30.931,62.24 31.086,62.805 C31.103,62.821 31.151,62.807 31.155,62.844 C31.154,62.879 31.101,62.897 31.129,62.928 C31.346,63.598 31.514,64.251 31.885,64.759 C31.908,64.766 31.957,64.74 31.957,64.771 C31.924,64.918 32.137,64.93 32.132,65.096 C32.259,65.143 32.32,65.261 32.434,65.323 C32.423,65.42 32.528,65.504 32.621,65.538 C32.787,65.777 32.964,66.002 33.151,66.219 C33.159,66.225 33.168,66.232 33.177,66.236 C33.431,66.434 33.534,66.629 33.774,66.821 C34.356,67.228 34.537,67.652 35.179,68.044 C36.009,68.482 36.861,68.881 37.701,69.295 C37.751,69.312 37.8,69.327 37.85,69.346 C37.775,69.289 37.667,69.27 37.607,69.201 C37.548,69.219 37.476,69.211 37.48,69.123 C37.589,69.15 37.68,69.156 37.706,69.225 C37.703,69.199 37.718,69.193 37.748,69.195 C37.777,69.191 37.74,69.259 37.79,69.236 C37.997,69.177 38.019,69.375 38.211,69.373 C38.244,69.361 38.163,69.334 38.209,69.305 C38.342,69.373 38.501,69.416 38.647,69.47 C38.667,69.525 38.705,69.568 38.755,69.594 C38.768,69.596 38.784,69.603 38.795,69.604 C38.823,69.546 38.925,69.561 38.964,69.512 C39.22,69.666 39.673,69.695 40.001,69.799 C40.528,69.873 41.063,69.937 41.596,70 C41.506,69.926 41.331,69.93 41.199,69.896 C41.209,69.846 41.176,69.844 41.181,69.797 C41.028,69.77 40.879,69.745 40.721,69.73 C40.677,69.783 40.812,69.805 40.766,69.853 C40.589,69.879 40.544,69.768 40.482,69.668 C40.434,69.77 40.384,69.827 40.277,69.787 C40.279,69.719 40.324,69.695 40.346,69.646 C39.838,69.516 39.336,69.392 38.858,69.17 L38.745,69.175 C38.373,68.91 37.876,68.775 37.515,68.496 C37.743,68.546 37.904,68.734 38.147,68.723 C38.237,68.848 38.41,68.885 38.582,68.89 C38.749,68.986 38.942,69.135 39.201,69.09 C39.235,69.187 39.402,69.177 39.51,69.203 C39.581,69.221 39.677,69.311 39.704,69.225 C39.587,69.15 39.282,69.16 39.184,69.036 C39.238,69.025 39.221,68.945 39.237,68.936 C39.436,68.98 39.605,69.088 39.809,69.025 C39.835,69.129 39.918,69.082 39.979,69.092 C40.044,69.1 40.089,69.141 40.131,69.139 C40.211,69.139 40.334,69.036 40.356,69.172 C40.366,69.129 40.382,69.166 40.424,69.156 C40.428,69.197 40.372,69.172 40.37,69.201 C40.644,69.268 40.972,69.314 41.221,69.365 C41.259,69.281 41.293,69.227 41.312,69.154 C41.39,69.203 41.456,69.266 41.578,69.228 C41.595,69.275 41.531,69.321 41.609,69.311 C41.642,69.299 41.581,69.275 41.595,69.242 C41.721,69.179 41.884,69.289 41.997,69.227 C41.998,69.148 41.932,69.228 41.924,69.16 C41.971,69.125 42.111,69.168 42.143,69.098 C42.028,69.114 41.979,69.104 41.824,69.096 C41.839,69.183 41.709,69.223 41.686,69.114 C41.717,69.141 41.746,69.092 41.783,69.082 C41.717,69.082 41.575,68.996 41.531,69.078 C41.595,69.084 41.6,69.078 41.658,69.1 C41.611,69.137 41.665,69.195 41.607,69.227 C41.58,69.207 41.607,69.131 41.548,69.145 C41.515,69.166 41.575,69.187 41.537,69.201 C41.467,69.143 41.426,69.116 41.324,69.139 C41.304,69.064 41.324,69.057 41.332,68.986 C41.237,68.977 41.201,68.968 41.127,68.924 C41.077,68.91 41.115,68.97 41.069,68.953 C41.053,68.939 41.019,68.939 40.985,68.941 C40.972,68.916 40.92,68.926 40.914,68.892 C40.834,68.91 40.82,68.859 40.748,68.869 C40.635,68.723 40.201,68.805 40.197,68.625 C40.313,68.747 40.549,68.652 40.661,68.773 C40.713,68.67 40.886,68.803 40.964,68.762 C40.854,68.727 40.721,68.662 40.631,68.721 C40.643,68.668 40.598,68.677 40.587,68.652 C40.412,68.668 40.308,68.542 40.195,68.61 C40.055,68.42 39.733,68.492 39.549,68.369 C39.506,68.352 39.511,68.375 39.453,68.373 C39.455,68.317 39.387,68.338 39.38,68.293 C39.209,68.227 39.019,68.191 38.862,68.116 C38.8,68.088 38.73,68.034 38.689,67.984 C38.94,68.042 39.171,68.119 39.376,68.223 C39.424,68.227 39.427,68.195 39.474,68.205 C39.549,68.245 39.635,68.314 39.741,68.279 C40.084,68.424 40.513,68.478 40.89,68.586 C40.924,68.586 40.929,68.564 40.956,68.555 C41.05,68.619 41.153,68.646 41.279,68.627 C41.428,68.721 41.631,68.685 41.795,68.709 C41.822,68.709 41.856,68.74 41.882,68.747 C41.92,68.753 41.96,68.723 41.99,68.727 C42.026,68.73 41.99,68.77 42.033,68.768 C42.086,68.764 42.131,68.742 42.171,68.723 C42.304,68.811 42.49,68.812 42.661,68.829 C42.834,68.85 43.043,68.855 43.217,68.838 C43.412,68.89 43.591,68.873 43.844,68.885 C43.864,68.879 43.852,68.842 43.897,68.855 C44.102,68.937 44.46,68.825 44.577,68.846 C44.588,68.797 44.685,68.821 44.672,68.747 C44.226,68.773 43.739,68.691 43.394,68.747 C43.396,68.717 43.38,68.705 43.351,68.709 C42.87,68.697 42.412,68.627 42.044,68.631 C42.04,68.608 42.044,68.58 42.014,68.588 C41.906,68.594 41.902,68.536 41.778,68.568 C41.707,68.482 41.605,68.518 41.498,68.551 C41.49,68.474 41.407,68.546 41.386,68.472 C41.328,68.472 41.273,68.474 41.233,68.49 C41.177,68.441 41.088,68.379 40.993,68.418 C40.912,68.327 40.721,68.319 40.632,68.373 C40.506,68.259 40.349,68.336 40.252,68.193 C40.249,68.166 40.304,68.211 40.32,68.177 C40.31,68.127 40.223,68.146 40.261,68.08 C40.315,68.082 40.322,68.139 40.374,68.146 C40.387,68.104 40.408,68.078 40.457,68.103 C40.492,68.137 40.462,68.186 40.43,68.201 C40.497,68.207 40.542,68.172 40.567,68.112 C40.334,68.042 40.104,67.96 39.868,67.899 C39.524,67.811 39.195,67.697 38.858,67.603 C38.802,67.536 38.751,67.464 38.631,67.472 C38.622,67.325 38.374,67.365 38.386,67.242 C38.474,67.253 38.544,67.285 38.572,67.363 C38.615,67.381 38.577,67.319 38.625,67.334 C38.717,67.464 38.9,67.42 39.006,67.542 C39.041,67.542 39.075,67.542 39.092,67.523 C39.3,67.652 39.544,67.736 39.835,67.777 C40.147,67.918 40.549,67.957 40.902,68.059 C40.904,68.029 40.874,67.962 40.922,67.974 C40.977,68.16 41.173,68.082 41.273,68.044 C41.279,68.074 41.255,68.074 41.248,68.088 C41.314,68.104 41.309,68.11 41.387,68.11 C41.418,68.025 41.454,68.021 41.52,67.98 C41.631,68.012 41.675,68.086 41.696,68.183 C41.697,68.162 41.727,68.17 41.749,68.166 C41.757,68.112 41.683,68.068 41.717,68.029 C41.778,68.059 41.9,68.021 41.926,68.094 C41.96,68.034 42.067,68.042 42.132,68.014 C42.085,67.914 41.888,67.91 41.811,67.957 C41.697,67.857 41.517,67.914 41.43,67.777 C41.506,67.745 41.631,67.751 41.628,67.854 C41.667,67.836 41.671,67.787 41.721,67.779 C41.822,67.836 41.94,67.787 42.015,67.854 C42.006,67.881 41.932,67.848 41.947,67.895 C42.088,67.863 42.22,67.773 42.378,67.869 C42.412,67.85 42.364,67.785 42.388,67.785 C42.432,67.785 42.562,67.775 42.625,67.803 C42.623,67.842 42.603,67.861 42.601,67.901 C42.673,67.953 42.8,67.84 42.825,67.962 C42.91,67.899 43.012,67.91 43.103,67.98 C43.192,67.894 43.314,67.984 43.448,67.941 C43.432,67.894 43.321,67.945 43.308,67.892 C43.414,67.842 43.569,67.936 43.625,67.823 C43.496,67.797 43.43,67.719 43.288,67.736 C43.275,67.766 43.33,67.783 43.29,67.795 C43.171,67.805 43.151,67.707 43.055,67.764 C43.084,67.675 42.96,67.719 42.915,67.736 C42.876,67.736 42.896,67.675 42.844,67.683 C42.424,67.616 42.054,67.549 41.571,67.48 C41.58,67.529 41.667,67.57 41.634,67.616 C41.498,67.586 41.347,67.578 41.269,67.492 C41.212,67.479 41.228,67.525 41.185,67.521 C40.916,67.477 40.627,67.369 40.373,67.273 C40.147,67.277 39.953,67.141 39.835,66.986 C39.984,66.998 40.102,67.07 40.209,66.986 C40.343,67.032 40.454,67.038 40.561,67.127 C40.643,67.038 40.793,67.236 40.868,67.116 C40.751,67.088 40.663,66.978 40.528,67.016 C40.428,66.897 40.185,66.97 40.118,66.795 C39.777,66.691 39.442,66.514 39.063,66.401 C39.017,66.334 38.94,66.295 38.878,66.24 C38.692,66.257 38.595,66.082 38.509,66.002 C38.91,66.162 39.297,66.353 39.743,66.377 C39.701,66.314 39.814,66.348 39.824,66.291 C40.141,66.492 40.505,66.437 40.861,66.588 C40.885,66.564 40.904,66.527 40.97,66.544 C40.986,66.606 41.073,66.596 41.101,66.648 C41.067,66.736 41.117,66.785 41.187,66.799 C41.209,66.787 41.183,66.732 41.212,66.728 L41.214,66.785 C41.282,66.753 41.342,66.685 41.394,66.764 C41.376,66.801 41.336,66.742 41.326,66.779 C41.38,66.817 41.447,66.799 41.506,66.775 C41.6,66.853 41.813,66.968 41.924,66.857 C41.916,66.897 41.948,66.897 41.942,66.939 C42.079,66.926 42.231,67.02 42.373,66.949 C42.51,67.057 42.832,66.964 43.016,67.055 C43.079,67.04 43.087,66.982 43.151,66.966 C43.166,67.02 43.201,66.994 43.275,67.004 C43.348,67.055 43.408,67.11 43.517,67.121 C43.557,67.07 43.687,67.103 43.708,67.027 C43.786,67.108 43.944,67.014 44.004,67.104 C44.232,67.038 44.474,67.07 44.737,67.062 C44.775,67.012 44.77,66.974 44.802,66.936 C44.795,67.012 44.858,67.055 44.93,67.084 C44.934,66.955 45.037,66.926 45.118,66.869 C45.039,66.918 44.782,66.846 44.705,66.951 C44.528,66.89 44.243,66.901 44.04,66.936 C43.914,66.928 43.812,66.873 43.687,66.865 C43.546,66.857 43.393,66.908 43.246,66.894 C43.224,66.892 43.211,66.857 43.189,66.855 C43.159,66.852 43.127,66.875 43.094,66.869 C43.038,66.865 42.981,66.831 42.923,66.821 C42.721,66.787 42.579,66.817 42.45,66.768 C42.412,66.768 42.424,66.814 42.368,66.799 C42.368,66.779 42.403,66.787 42.394,66.757 C41.974,66.688 41.543,66.672 41.218,66.492 C41.328,66.498 41.406,66.502 41.509,66.482 C41.55,66.555 41.659,66.555 41.749,66.57 C41.769,66.496 41.686,66.525 41.691,66.462 C41.519,66.462 41.278,66.397 41.102,66.314 C41.017,66.329 40.95,66.285 40.894,66.309 C40.839,66.232 40.725,66.219 40.598,66.223 C40.559,66.186 40.5,66.175 40.484,66.116 C40.394,66.123 40.36,66.066 40.273,66.068 C40.189,65.964 40.001,65.949 39.853,65.901 C39.756,65.871 39.604,65.834 39.609,65.728 C39.701,65.725 39.695,65.793 39.791,65.751 C39.838,65.879 40.009,65.869 40.142,65.908 C40.17,65.871 40.191,65.825 40.181,65.753 C40.141,65.742 40.111,65.723 40.069,65.713 C40.035,65.709 40.038,65.799 40.014,65.759 C40.009,65.625 39.763,65.646 39.699,65.534 C39.803,65.544 39.864,65.596 39.979,65.592 C39.984,65.549 39.946,65.54 39.989,65.523 C40.325,65.604 40.644,65.771 41.026,65.766 C40.92,65.66 40.731,65.675 40.617,65.612 C40.578,65.623 40.561,65.654 40.494,65.645 C40.456,65.625 40.442,65.576 40.422,65.536 C40.248,65.512 40.161,65.392 39.96,65.399 C39.659,65.213 39.233,65.162 39.012,64.892 C39.418,64.953 39.809,65.323 40.219,65.264 C40.304,65.408 40.539,65.321 40.681,65.414 C40.616,65.344 40.619,65.273 40.55,65.225 C40.533,65.261 40.591,65.283 40.551,65.293 C40.5,65.293 40.464,65.227 40.492,65.185 C40.343,65.181 40.273,65.086 40.115,65.088 C40.059,65.008 39.934,64.955 39.833,64.974 C39.786,64.855 39.594,64.894 39.561,64.759 C39.632,64.751 39.68,64.819 39.743,64.838 C39.806,64.853 39.876,64.823 39.923,64.846 C39.966,64.861 39.992,64.922 40.04,64.939 C40.067,64.945 40.113,64.93 40.151,64.934 C40.297,64.951 40.392,65.086 40.514,64.992 C40.573,65.106 40.793,65.135 40.878,65.074 C40.88,65.137 40.937,65.137 40.964,65.168 C41.117,65.086 41.203,65.279 41.381,65.223 C41.419,65.24 41.438,65.279 41.482,65.289 C41.811,65.281 42.149,65.383 42.43,65.381 C42.615,65.518 42.979,65.49 43.167,65.468 C43.205,65.472 43.215,65.512 43.266,65.504 C43.443,65.464 43.622,65.527 43.808,65.527 C43.8,65.496 43.831,65.496 43.82,65.457 C43.753,65.428 43.751,65.412 43.677,65.392 C43.662,65.441 43.721,65.403 43.708,65.447 C43.677,65.42 43.594,65.48 43.569,65.426 C43.579,65.403 43.637,65.422 43.624,65.381 C43.348,65.381 43.1,65.268 42.83,65.257 C42.828,65.232 42.823,65.215 42.811,65.201 C42.725,65.255 42.585,65.16 42.668,65.08 C42.759,65.228 42.962,65.141 43.072,65.164 C43.079,65.143 43.055,65.094 43.085,65.094 C43.175,65.116 43.17,65.116 43.223,65.062 C43.259,65.09 43.219,65.135 43.268,65.129 C43.279,65.064 43.406,65.11 43.434,65.125 C43.585,65.02 43.856,65.156 44.087,65.143 C44.064,65.09 44.147,65.139 44.125,65.086 C43.664,65.061 43.161,64.992 42.689,64.873 C42.681,64.848 42.65,64.85 42.659,64.803 C42.582,64.823 42.564,64.781 42.504,64.781 C42.522,64.764 42.522,64.728 42.502,64.713 C42.444,64.725 42.412,64.705 42.364,64.703 C42.342,64.764 42.442,64.699 42.421,64.757 C42.386,64.742 42.337,64.74 42.295,64.734 C42.278,64.699 42.335,64.672 42.279,64.679 C41.874,64.588 41.515,64.443 41.115,64.346 C41.097,64.329 41.097,64.289 41.059,64.291 C40.785,64.17 40.503,64.055 40.241,63.92 C40.249,63.844 40.131,63.744 40.233,63.709 C40.264,63.711 40.265,63.742 40.264,63.777 C40.537,63.867 40.8,64.118 41.108,64.082 C41.111,64.145 41.185,64.145 41.253,64.146 C41.223,64.127 41.192,64.1 41.165,64.076 C40.658,63.92 40.172,63.705 39.699,63.397 C39.29,63.129 38.946,62.812 38.659,62.466 C37.657,61.809 37.239,60.5 37.328,59.338 C37.344,59.103 37.402,58.885 37.49,58.685 C37.518,58.548 37.561,58.422 37.623,58.309 C37.683,58.021 37.784,57.74 37.95,57.496 C38.033,57.283 38.139,57.084 38.271,56.897 C39.297,54.809 39.958,52.99 39.926,50.594 C39.926,50.479 39.932,50.373 39.944,50.265 C39.94,50.257 39.94,50.248 39.94,50.238 C39.811,49.936 39.746,49.605 39.772,49.261 C39.79,49.088 39.799,48.914 39.804,48.74 C39.759,48.66 39.721,48.58 39.687,48.496 C39.684,48.504 39.681,48.51 39.676,48.518 C39.619,48.465 39.632,48.407 39.635,48.346 C39.621,48.305 39.601,48.265 39.593,48.221 C39.59,48.219 39.59,48.217 39.588,48.217 C39.588,48.213 39.589,48.213 39.589,48.211 C39.544,48.027 39.488,47.844 39.424,47.664 C39.19,47.383 39.028,47.059 38.925,46.719 C38.914,46.713 38.908,46.703 38.9,46.699 C38.848,46.476 38.56,46.325 38.604,46.114 C38.507,46.12 38.493,46.012 38.43,45.914 C38.408,45.922 38.376,45.97 38.362,45.941 C38.301,45.889 38.403,45.822 38.293,45.779 C38.338,45.746 38.319,45.719 38.372,45.715 C38.142,45.52 37.984,45.196 37.74,45.135 C37.703,44.963 37.515,44.926 37.416,44.809 C37.382,44.767 37.378,44.705 37.344,44.666 C37.313,44.631 37.261,44.62 37.225,44.586 C36.982,44.373 36.699,44.184 36.43,43.991 C36.46,44.039 36.412,44.063 36.394,44.096 C36.317,44.061 36.346,43.971 36.334,43.915 C36.233,43.845 36.135,43.758 36.028,43.728 C35.703,43.406 35.248,43.256 34.874,42.995 C34.862,43.001 34.848,43.012 34.842,42.999 C34.815,43.027 34.77,43.047 34.792,43.084 C34.802,43.14 34.883,43.098 34.9,43.204 C34.883,43.228 34.867,43.25 34.842,43.272 C34.772,43.262 34.702,43.236 34.642,43.174 C34.698,43.152 34.686,43.16 34.729,43.119 C34.749,43.069 34.72,43.008 34.707,42.947 C34.559,42.945 34.415,42.716 34.272,42.824 C34.084,42.644 33.697,42.571 33.466,42.541 C33.317,42.527 33.136,42.457 33,42.425 C32.926,42.406 32.849,42.427 32.771,42.412 C32.66,42.395 32.558,42.322 32.449,42.307 C32.334,42.293 32.205,42.33 32.087,42.328 C31.868,42.324 31.641,42.309 31.428,42.363 C31.41,42.322 31.376,42.353 31.352,42.324 C31.103,42.383 30.798,42.383 30.532,42.459 C30.411,42.497 30.28,42.52 30.207,42.594 C30.074,42.549 29.873,42.623 29.733,42.736 C29.377,42.795 29.069,43.057 28.721,43.107 C28.568,43.268 28.367,43.191 28.21,43.358 C28.179,43.358 28.154,43.326 28.122,43.326 C28.086,43.356 28.074,43.393 28.027,43.423 C27.817,43.41 27.647,43.6 27.389,43.545 C27.336,43.571 27.328,43.603 27.306,43.632 C27.186,43.582 27.028,43.686 26.918,43.584 C26.812,43.672 26.735,43.619 26.657,43.576 C26.522,43.603 26.405,43.551 26.285,43.501 C26.213,43.582 26.085,43.531 26.005,43.487 C26.019,43.471 26.012,43.449 25.999,43.423 C25.911,43.385 25.794,43.427 25.732,43.351 C25.679,43.284 25.569,43.26 25.484,43.197 C25.408,43.144 25.352,43.06 25.247,43.039 C25.102,42.929 24.978,42.736 24.819,42.654 C24.77,42.484 24.624,42.353 24.54,42.199 C24.127,41.477 23.934,40.71 23.693,39.963 C23.622,39.521 23.415,39.065 23.321,38.627 C23.335,38.619 23.357,38.609 23.35,38.592 C23.223,38.463 23.275,38.234 23.168,38.109 C23.22,37.904 23.113,37.662 23.073,37.436 C23.086,37.429 23.098,37.421 23.111,37.412 C23.012,37.242 22.977,36.997 22.995,36.818 C22.98,36.826 22.964,36.832 22.956,36.809 C22.859,36.212 22.81,35.592 22.723,34.997 C22.704,34.949 22.664,34.995 22.644,34.949 C22.723,34.895 22.646,34.786 22.644,34.704 C22.644,34.691 22.681,34.666 22.68,34.652 C22.675,34.627 22.65,34.578 22.644,34.537 C22.616,34.423 22.607,34.256 22.52,34.174 C22.527,34.111 22.526,33.982 22.459,33.967 C22.433,34.031 22.427,34.1 22.451,34.178 C22.407,34.227 22.318,34.218 22.309,34.248 C22.369,34.242 22.309,34.297 22.335,34.318 C22.369,34.332 22.405,34.316 22.437,34.342 C22.42,34.4 22.369,34.408 22.309,34.439 C22.395,34.497 22.262,34.584 22.389,34.678 C22.349,34.71 22.331,34.79 22.29,34.79 C22.22,34.499 22.146,34.271 22.078,33.984 C22.12,33.936 22.139,33.986 22.174,33.979 C22.166,33.941 22.204,33.914 22.236,33.885 C22.266,33.931 22.272,33.971 22.282,34.012 C22.356,33.957 22.374,33.869 22.427,33.834 C21.619,30.941 20.605,27.667 19.766,26.085 Z" id="Fill-3" fill="#6BA3CB" mask="url(#mask-2)"></path>
            </g>
        </g>
    </g>
</svg>